<svg width="47" height="47" viewBox="0 0 47 47" fill="none" xmlns="http://www.w3.org/2000/svg">
<ellipse opacity="0.1" cx="23.5625" cy="23.8859" rx="23.0625" ry="23.1141" fill="#060E1A"/>
<path d="M27.4064 16.1812H19.7189C17.596 16.1812 15.8751 17.9059 15.8751 20.0335V27.7382C15.8751 29.8658 17.596 31.5905 19.7189 31.5905H27.4064C29.5292 31.5905 31.2501 29.8658 31.2501 27.7382V20.0335C31.2501 17.9059 29.5292 16.1812 27.4064 16.1812Z" stroke="#2657A4" stroke-width="1.36667" stroke-linecap="round" stroke-linejoin="round"/>
<path d="M26.6373 23.4003C26.7321 24.0415 26.6228 24.6964 26.325 25.2718C26.0271 25.8472 25.5557 26.3138 24.978 26.6052C24.4003 26.8967 23.7456 26.9981 23.107 26.8951C22.4684 26.7921 21.8785 26.49 21.4212 26.0316C20.9638 25.5732 20.6623 24.982 20.5596 24.342C20.4568 23.702 20.558 23.0458 20.8488 22.4668C21.1396 21.8878 21.6052 21.4154 22.1793 21.1168C22.7534 20.8183 23.4068 20.7088 24.0466 20.8038C24.6992 20.9008 25.3034 21.2056 25.7699 21.6732C26.2364 22.1407 26.5405 22.7463 26.6373 23.4003Z" stroke="#2657A4" stroke-width="1.36667" stroke-linecap="round" stroke-linejoin="round"/>
<path d="M27.7905 19.6479H27.7981" stroke="#2657A4" stroke-width="1.36667" stroke-linecap="round" stroke-linejoin="round"/>
</svg>
