<svg width="47" height="47" viewBox="0 0 47 47" fill="none" xmlns="http://www.w3.org/2000/svg">
<ellipse opacity="0.1" cx="23.8125" cy="23.8859" rx="23.0625" ry="23.1141" fill="#060E1A"/>
<path d="M27.5248 21.2921C28.778 21.2921 29.9798 21.791 30.8659 22.6791C31.752 23.5672 32.2498 24.7717 32.2498 26.0277V31.5525H29.0998V26.0277C29.0998 25.609 28.9339 25.2075 28.6385 24.9115C28.3431 24.6155 27.9425 24.4492 27.5248 24.4492C27.1071 24.4492 26.7065 24.6155 26.4111 24.9115C26.1157 25.2075 25.9498 25.609 25.9498 26.0277V31.5525H22.7998V26.0277C22.7998 24.7717 23.2976 23.5672 24.1837 22.6791C25.0698 21.791 26.2717 21.2921 27.5248 21.2921V21.2921Z" stroke="#2657A4" stroke-linecap="round" stroke-linejoin="round"/>
<path d="M19.65 22.0823H16.5V31.5534H19.65V22.0823Z" stroke="#2657A4" stroke-linecap="round" stroke-linejoin="round"/>
<path d="M18.075 19.7141C18.9448 19.7141 19.65 19.0073 19.65 18.1355C19.65 17.2637 18.9448 16.557 18.075 16.557C17.2052 16.557 16.5 17.2637 16.5 18.1355C16.5 19.0073 17.2052 19.7141 18.075 19.7141Z" stroke="#2657A4" stroke-linecap="round" stroke-linejoin="round"/>
</svg>
