<svg width="47" height="47" viewBox="0 0 47 47" fill="none" xmlns="http://www.w3.org/2000/svg">
<ellipse opacity="0.1" cx="23.0625" cy="23.8859" rx="23.0625" ry="23.1141" fill="#060E1A"/>
<path d="M30.75 17.7299C30.0139 18.2504 29.1988 18.6484 28.3362 18.9087C27.8732 18.3752 27.2578 17.997 26.5734 17.8254C25.889 17.6538 25.1685 17.6969 24.5094 17.9491C23.8502 18.2012 23.2843 18.6502 22.888 19.2352C22.4917 19.8202 22.2843 20.5131 22.2938 21.2201V21.9906C20.9428 22.0257 19.6041 21.7254 18.397 21.1165C17.1898 20.5075 16.1517 19.6088 15.375 18.5004C15.375 18.5004 12.3 25.4346 19.2188 28.5165C17.6356 29.5936 15.7495 30.1337 13.8375 30.0574C20.7563 33.9098 29.2125 30.0574 29.2125 21.197C29.2118 20.9824 29.1912 20.7683 29.151 20.5575C29.9356 19.7821 30.4893 18.803 30.75 17.7299V17.7299Z" stroke="#2657A4" stroke-width="1.36667" stroke-linecap="round" stroke-linejoin="round"/>
</svg>
