<svg width="1021" height="420" viewBox="0 0 1021 420" fill="none" xmlns="http://www.w3.org/2000/svg">
<g filter="url(#filter0_d_15_256)">
<path d="M39 43.403C39 38.7621 44.6976 35 51.726 35H969.274C976.302 35 982 38.7621 982 43.4029V368.597C982 373.238 976.302 377 969.274 377H51.726C44.6976 377 39 373.238 39 368.597V43.403Z" fill="white"/>
</g>
<path d="M98.4773 105.065V113.793H97.4205V106.173H97.3694L95.2387 107.588V106.514L97.4205 105.065H98.4773Z" fill="#6B7280"/>
<path d="M100.987 113.793V113.025L103.868 109.872C104.206 109.503 104.484 109.182 104.703 108.909C104.922 108.633 105.084 108.375 105.189 108.133C105.297 107.889 105.351 107.633 105.351 107.366C105.351 107.06 105.277 106.794 105.129 106.57C104.984 106.345 104.786 106.172 104.533 106.05C104.28 105.927 103.996 105.866 103.68 105.866C103.345 105.866 103.053 105.936 102.803 106.075C102.555 106.212 102.364 106.403 102.227 106.65C102.094 106.898 102.027 107.187 102.027 107.52H101.021C101.021 107.008 101.139 106.56 101.375 106.173C101.611 105.787 101.932 105.486 102.338 105.27C102.747 105.054 103.206 104.946 103.715 104.946C104.226 104.946 104.679 105.054 105.074 105.27C105.469 105.486 105.778 105.777 106.003 106.143C106.227 106.51 106.34 106.918 106.34 107.366C106.34 107.687 106.281 108.001 106.165 108.308C106.051 108.612 105.852 108.952 105.568 109.327C105.287 109.699 104.896 110.153 104.396 110.69L102.436 112.787V112.855H106.493V113.793H100.987Z" fill="#6B7280"/>
<path d="M98.1023 135.912V144.639H97.0455V137.02H96.9944L94.8637 138.435V137.361L97.0455 135.912H98.1023Z" fill="#6B7280"/>
<path d="M103.459 144.758C102.817 144.758 102.27 144.584 101.818 144.234C101.367 143.882 101.021 143.372 100.783 142.704C100.544 142.034 100.425 141.224 100.425 140.275C100.425 139.332 100.544 138.527 100.783 137.859C101.024 137.189 101.371 136.677 101.823 136.325C102.277 135.97 102.823 135.793 103.459 135.793C104.095 135.793 104.639 135.97 105.091 136.325C105.546 136.677 105.892 137.189 106.131 137.859C106.372 138.527 106.493 139.332 106.493 140.275C106.493 141.224 106.374 142.034 106.135 142.704C105.896 143.372 105.551 143.882 105.1 144.234C104.648 144.584 104.101 144.758 103.459 144.758ZM103.459 143.821C104.095 143.821 104.59 143.514 104.942 142.9C105.294 142.287 105.47 141.412 105.47 140.275C105.47 139.52 105.389 138.876 105.227 138.345C105.068 137.814 104.838 137.409 104.537 137.131C104.239 136.852 103.879 136.713 103.459 136.713C102.828 136.713 102.335 137.024 101.98 137.646C101.625 138.266 101.448 139.142 101.448 140.275C101.448 141.031 101.527 141.673 101.686 142.202C101.845 142.73 102.074 143.132 102.372 143.408C102.673 143.683 103.036 143.821 103.459 143.821Z" fill="#6B7280"/>
<path d="M103.527 175.724C102.942 175.724 102.425 175.621 101.976 175.413C101.53 175.203 101.182 174.915 100.932 174.548C100.682 174.179 100.558 173.758 100.561 173.287C100.558 172.918 100.631 172.577 100.778 172.264C100.926 171.949 101.128 171.686 101.384 171.476C101.642 171.263 101.93 171.128 102.249 171.071V171.02C101.831 170.912 101.499 170.677 101.251 170.317C101.004 169.953 100.882 169.54 100.885 169.077C100.882 168.633 100.994 168.237 101.222 167.888C101.449 167.538 101.761 167.263 102.159 167.061C102.56 166.859 103.016 166.758 103.527 166.758C104.033 166.758 104.484 166.859 104.882 167.061C105.28 167.263 105.592 167.538 105.82 167.888C106.05 168.237 106.166 168.633 106.169 169.077C106.166 169.54 106.04 169.953 105.79 170.317C105.543 170.677 105.215 170.912 104.805 171.02V171.071C105.121 171.128 105.405 171.263 105.658 171.476C105.911 171.686 106.112 171.949 106.263 172.264C106.413 172.577 106.49 172.918 106.493 173.287C106.49 173.758 106.362 174.179 106.109 174.548C105.859 174.915 105.511 175.203 105.065 175.413C104.622 175.621 104.109 175.724 103.527 175.724ZM103.527 174.787C103.922 174.787 104.263 174.723 104.55 174.595C104.837 174.467 105.058 174.287 105.215 174.054C105.371 173.821 105.45 173.548 105.453 173.236C105.45 172.906 105.365 172.615 105.198 172.362C105.03 172.109 104.801 171.91 104.511 171.766C104.224 171.621 103.896 171.548 103.527 171.548C103.155 171.548 102.823 171.621 102.53 171.766C102.24 171.91 102.011 172.109 101.844 172.362C101.679 172.615 101.598 172.906 101.601 173.236C101.598 173.548 101.673 173.821 101.827 174.054C101.983 174.287 102.206 174.467 102.496 174.595C102.786 174.723 103.129 174.787 103.527 174.787ZM103.527 170.645C103.84 170.645 104.117 170.582 104.358 170.457C104.602 170.332 104.794 170.158 104.933 169.933C105.073 169.709 105.144 169.446 105.146 169.145C105.144 168.849 105.074 168.592 104.938 168.374C104.801 168.152 104.612 167.981 104.371 167.862C104.129 167.74 103.848 167.679 103.527 167.679C103.2 167.679 102.915 167.74 102.671 167.862C102.426 167.981 102.237 168.152 102.104 168.374C101.97 168.592 101.905 168.849 101.908 169.145C101.905 169.446 101.972 169.709 102.108 169.933C102.247 170.158 102.439 170.332 102.683 170.457C102.928 170.582 103.209 170.645 103.527 170.645Z" fill="#6B7280"/>
<path d="M103.578 206.69C103.22 206.685 102.862 206.616 102.504 206.486C102.146 206.355 101.82 206.135 101.524 205.825C101.229 205.513 100.992 205.091 100.813 204.56C100.634 204.026 100.544 203.355 100.544 202.548C100.544 201.776 100.617 201.091 100.761 200.494C100.906 199.895 101.117 199.391 101.392 198.981C101.668 198.57 102 198.257 102.389 198.044C102.781 197.831 103.223 197.724 103.715 197.724C104.203 197.724 104.638 197.822 105.019 198.018C105.402 198.212 105.715 198.481 105.956 198.828C106.198 199.175 106.354 199.574 106.425 200.026H105.385C105.288 199.633 105.101 199.308 104.823 199.05C104.544 198.791 104.175 198.662 103.715 198.662C103.038 198.662 102.506 198.956 102.117 199.544C101.73 200.132 101.536 200.957 101.533 202.02H101.601C101.76 201.778 101.949 201.572 102.168 201.402C102.389 201.229 102.634 201.095 102.901 201.001C103.168 200.908 103.45 200.861 103.749 200.861C104.249 200.861 104.706 200.986 105.121 201.236C105.536 201.483 105.868 201.825 106.118 202.263C106.368 202.697 106.493 203.196 106.493 203.758C106.493 204.298 106.372 204.793 106.131 205.241C105.889 205.687 105.55 206.043 105.112 206.307C104.678 206.568 104.166 206.696 103.578 206.69ZM103.578 205.753C103.936 205.753 104.257 205.663 104.541 205.484C104.828 205.305 105.054 205.065 105.219 204.764C105.386 204.463 105.47 204.128 105.47 203.758C105.47 203.398 105.389 203.07 105.227 202.774C105.068 202.476 104.848 202.239 104.567 202.062C104.288 201.886 103.97 201.798 103.612 201.798C103.342 201.798 103.091 201.852 102.858 201.96C102.625 202.065 102.421 202.21 102.244 202.395C102.071 202.579 101.935 202.791 101.835 203.03C101.736 203.266 101.686 203.514 101.686 203.776C101.686 204.122 101.767 204.446 101.929 204.747C102.094 205.048 102.318 205.291 102.602 205.476C102.889 205.66 103.215 205.753 103.578 205.753Z" fill="#6B7280"/>
<path d="M100.186 235.628V234.759L104.021 228.69H104.652V230.037H104.226L101.328 234.622V234.69H106.493V235.628H100.186ZM104.294 237.418V235.364V234.959V228.69H105.3V237.418H104.294Z" fill="#6B7280"/>
<path d="M100.987 268.264V267.497L103.868 264.344C104.206 263.975 104.484 263.654 104.703 263.381C104.922 263.105 105.084 262.847 105.189 262.605C105.297 262.361 105.351 262.105 105.351 261.838C105.351 261.531 105.277 261.266 105.129 261.041C104.984 260.817 104.786 260.644 104.533 260.521C104.28 260.399 103.996 260.338 103.68 260.338C103.345 260.338 103.053 260.408 102.803 260.547C102.555 260.683 102.364 260.875 102.227 261.122C102.094 261.369 102.027 261.659 102.027 261.992H101.021C101.021 261.48 101.139 261.031 101.375 260.645C101.611 260.259 101.932 259.957 102.338 259.742C102.747 259.526 103.206 259.418 103.715 259.418C104.226 259.418 104.679 259.526 105.074 259.742C105.469 259.957 105.778 260.249 106.003 260.615C106.227 260.982 106.34 261.389 106.34 261.838C106.34 262.159 106.281 262.473 106.165 262.78C106.051 263.084 105.852 263.423 105.568 263.798C105.287 264.171 104.896 264.625 104.396 265.162L102.436 267.259V267.327H106.493V268.264H100.987Z" fill="#6B7280"/>
<path d="M103.459 299.23C102.817 299.23 102.27 299.056 101.818 298.706C101.367 298.354 101.021 297.844 100.783 297.176C100.544 296.506 100.425 295.696 100.425 294.747C100.425 293.804 100.544 292.999 100.783 292.331C101.024 291.661 101.371 291.149 101.823 290.797C102.277 290.442 102.823 290.264 103.459 290.264C104.095 290.264 104.639 290.442 105.091 290.797C105.546 291.149 105.892 291.661 106.131 292.331C106.372 292.999 106.493 293.804 106.493 294.747C106.493 295.696 106.374 296.506 106.135 297.176C105.896 297.844 105.551 298.354 105.099 298.706C104.648 299.056 104.101 299.23 103.459 299.23ZM103.459 298.293C104.095 298.293 104.59 297.986 104.942 297.372C105.294 296.759 105.47 295.884 105.47 294.747C105.47 293.992 105.389 293.348 105.227 292.817C105.068 292.286 104.838 291.881 104.537 291.602C104.239 291.324 103.879 291.185 103.459 291.185C102.828 291.185 102.335 291.496 101.98 292.118C101.625 292.737 101.448 293.614 101.448 294.747C101.448 295.503 101.527 296.145 101.686 296.673C101.845 297.202 102.074 297.604 102.372 297.879C102.673 298.155 103.036 298.293 103.459 298.293Z" fill="#6B7280"/>
<path fill-rule="evenodd" clip-rule="evenodd" d="M779.962 115.029H134.962V114.029H779.962V115.029Z" fill="#F3F4F6"/>
<path fill-rule="evenodd" clip-rule="evenodd" d="M779.962 157.029H134.962V156.029H779.962V157.029Z" fill="#F3F4F6"/>
<path fill-rule="evenodd" clip-rule="evenodd" d="M779.962 199.029H134.962V198.029H779.962V199.029Z" fill="#F3F4F6"/>
<path fill-rule="evenodd" clip-rule="evenodd" d="M779.962 241.029H134.962V240.029H779.962V241.029Z" fill="#F3F4F6"/>
<path fill-rule="evenodd" clip-rule="evenodd" d="M779.962 283.029H134.962V282.029H779.962V283.029Z" fill="#F3F4F6"/>
<path fill-rule="evenodd" clip-rule="evenodd" d="M779.962 325.029H134.962V324.029H779.962V325.029Z" fill="#F3F4F6"/>
<path fill-rule="evenodd" clip-rule="evenodd" d="M779.962 367.029H134.962V366.029H779.962V367.029Z" fill="#F3F4F6"/>
<path fill-rule="evenodd" clip-rule="evenodd" d="M528.462 219.071V217.029H529.462V219.071H528.462ZM528.462 227.238V223.154H529.462V227.238H528.462ZM528.462 235.404V231.321H529.462V235.404H528.462ZM528.462 243.571V239.488H529.462V243.571H528.462ZM528.462 251.738V247.654H529.462V251.738H528.462ZM528.462 259.904V255.821H529.462V259.904H528.462ZM528.462 268.071V263.988H529.462V268.071H528.462ZM528.462 276.238V272.154H529.462V276.238H528.462ZM528.462 284.404V280.321H529.462V284.404H528.462ZM528.462 292.571V288.488H529.462V292.571H528.462ZM528.462 300.738V296.654H529.462V300.738H528.462ZM528.462 308.904V304.821H529.462V308.904H528.462ZM528.462 317.071V312.988H529.462V317.071H528.462ZM528.462 325.238V321.154H529.462V325.238H528.462ZM528.462 333.405V329.321H529.462V333.405H528.462ZM528.462 341.571V337.488H529.462V341.571H528.462ZM528.462 349.738V345.655H529.462V349.738H528.462ZM528.462 357.904V353.821H529.462V357.904H528.462ZM528.462 364.029V361.988H529.462V364.029H528.462Z" fill="#E2E4E9"/>
<path d="M142.667 340.51C142.667 341.43 142.5 342.226 142.168 342.896C141.836 343.567 141.38 344.084 140.8 344.447C140.221 344.811 139.559 344.993 138.814 344.993C138.07 344.993 137.408 344.811 136.829 344.447C136.249 344.084 135.793 343.567 135.461 342.896C135.128 342.226 134.962 341.43 134.962 340.51C134.962 339.59 135.128 338.794 135.461 338.124C135.793 337.453 136.249 336.936 136.829 336.572C137.408 336.209 138.07 336.027 138.814 336.027C139.559 336.027 140.221 336.209 140.8 336.572C141.38 336.936 141.836 337.453 142.168 338.124C142.5 338.794 142.667 339.59 142.667 340.51ZM141.644 340.51C141.644 339.754 141.517 339.117 141.265 338.597C141.015 338.077 140.675 337.683 140.246 337.416C139.82 337.149 139.343 337.016 138.814 337.016C138.286 337.016 137.807 337.149 137.378 337.416C136.952 337.683 136.613 338.077 136.36 338.597C136.11 339.117 135.985 339.754 135.985 340.51C135.985 341.266 136.11 341.903 136.36 342.423C136.613 342.943 136.952 343.337 137.378 343.604C137.807 343.871 138.286 344.004 138.814 344.004C139.343 344.004 139.82 343.871 140.246 343.604C140.675 343.337 141.015 342.943 141.265 342.423C141.517 341.903 141.644 341.266 141.644 340.51Z" fill="#6B7280"/>
<path d="M146.966 345.01C146.353 345.01 145.824 344.865 145.381 344.575C144.938 344.286 144.597 343.886 144.358 343.378C144.12 342.869 144 342.288 144 341.635C144 340.97 144.123 340.384 144.367 339.875C144.614 339.364 144.958 338.965 145.398 338.678C145.841 338.388 146.358 338.243 146.949 338.243C147.41 338.243 147.824 338.328 148.194 338.499C148.563 338.669 148.865 338.908 149.101 339.215C149.337 339.521 149.483 339.879 149.54 340.288H148.535C148.458 339.99 148.287 339.726 148.023 339.496C147.762 339.263 147.41 339.146 146.966 339.146C146.574 339.146 146.231 339.249 145.935 339.453C145.642 339.655 145.414 339.94 145.249 340.31C145.087 340.676 145.006 341.107 145.006 341.601C145.006 342.107 145.086 342.547 145.245 342.922C145.407 343.297 145.634 343.588 145.927 343.796C146.222 344.003 146.569 344.107 146.966 344.107C147.228 344.107 147.465 344.061 147.678 343.97C147.891 343.879 148.071 343.749 148.219 343.578C148.367 343.408 148.472 343.203 148.535 342.965H149.54C149.483 343.351 149.343 343.699 149.118 344.009C148.897 344.315 148.603 344.56 148.236 344.742C147.873 344.921 147.449 345.01 146.966 345.01Z" fill="#6B7280"/>
<path d="M153.857 338.328V339.18H150.465V338.328H153.857ZM151.454 336.76H152.459V342.999C152.459 343.283 152.5 343.496 152.583 343.638C152.668 343.777 152.776 343.871 152.907 343.919C153.04 343.965 153.181 343.987 153.329 343.987C153.439 343.987 153.53 343.982 153.601 343.97C153.672 343.956 153.729 343.945 153.772 343.936L153.976 344.84C153.908 344.865 153.813 344.891 153.691 344.916C153.569 344.945 153.414 344.959 153.226 344.959C152.942 344.959 152.664 344.898 152.391 344.776C152.121 344.653 151.897 344.467 151.718 344.217C151.542 343.967 151.454 343.652 151.454 343.271V336.76Z" fill="#6B7280"/>
<path d="M158.728 344.874V344.107L161.608 340.953C161.946 340.584 162.225 340.263 162.444 339.99C162.662 339.715 162.824 339.456 162.929 339.215C163.037 338.97 163.091 338.715 163.091 338.447C163.091 338.141 163.017 337.875 162.87 337.651C162.725 337.426 162.526 337.253 162.273 337.131C162.02 337.009 161.736 336.947 161.421 336.947C161.086 336.947 160.793 337.017 160.543 337.156C160.296 337.293 160.104 337.484 159.968 337.732C159.834 337.979 159.767 338.269 159.767 338.601H158.762C158.762 338.09 158.88 337.641 159.115 337.254C159.351 336.868 159.672 336.567 160.079 336.351C160.488 336.135 160.946 336.027 161.455 336.027C161.966 336.027 162.419 336.135 162.814 336.351C163.209 336.567 163.519 336.858 163.743 337.224C163.968 337.591 164.08 337.999 164.08 338.447C164.08 338.769 164.022 339.082 163.905 339.389C163.792 339.693 163.593 340.033 163.309 340.408C163.027 340.78 162.637 341.234 162.137 341.771L160.177 343.868V343.936H164.233V344.874H158.728Z" fill="#6B7280"/>
<path d="M168.84 344.993C168.198 344.993 167.651 344.818 167.199 344.469C166.748 344.117 166.402 343.607 166.164 342.939C165.925 342.269 165.806 341.459 165.806 340.51C165.806 339.567 165.925 338.761 166.164 338.094C166.405 337.423 166.752 336.912 167.204 336.56C167.658 336.205 168.204 336.027 168.84 336.027C169.476 336.027 170.02 336.205 170.472 336.56C170.927 336.912 171.273 337.423 171.512 338.094C171.753 338.761 171.874 339.567 171.874 340.51C171.874 341.459 171.755 342.269 171.516 342.939C171.277 343.607 170.932 344.117 170.481 344.469C170.029 344.818 169.482 344.993 168.84 344.993ZM168.84 344.055C169.476 344.055 169.971 343.749 170.323 343.135C170.675 342.521 170.851 341.646 170.851 340.51C170.851 339.754 170.77 339.111 170.608 338.58C170.449 338.048 170.219 337.644 169.918 337.365C169.62 337.087 169.26 336.947 168.84 336.947C168.209 336.947 167.716 337.259 167.361 337.881C167.006 338.5 166.829 339.376 166.829 340.51C166.829 341.266 166.908 341.908 167.067 342.436C167.226 342.965 167.455 343.367 167.753 343.642C168.054 343.918 168.417 344.055 168.84 344.055Z" fill="#6B7280"/>
<path d="M173.493 344.874V344.107L176.374 340.953C176.712 340.584 176.99 340.263 177.209 339.99C177.428 339.715 177.59 339.456 177.695 339.215C177.803 338.97 177.857 338.715 177.857 338.447C177.857 338.141 177.783 337.875 177.635 337.651C177.49 337.426 177.292 337.253 177.039 337.131C176.786 337.009 176.502 336.947 176.187 336.947C175.851 336.947 175.559 337.017 175.309 337.156C175.062 337.293 174.87 337.484 174.733 337.732C174.6 337.979 174.533 338.269 174.533 338.601H173.527C173.527 338.09 173.645 337.641 173.881 337.254C174.117 336.868 174.438 336.567 174.844 336.351C175.253 336.135 175.712 336.027 176.221 336.027C176.732 336.027 177.185 336.135 177.58 336.351C177.975 336.567 178.285 336.858 178.509 337.224C178.733 337.591 178.846 337.999 178.846 338.447C178.846 338.769 178.787 339.082 178.671 339.389C178.557 339.693 178.358 340.033 178.074 340.408C177.793 340.78 177.402 341.234 176.902 341.771L174.942 343.868V343.936H178.999V344.874H173.493Z" fill="#6B7280"/>
<path d="M183.827 336.146V344.874H182.77V337.254H182.719L180.588 338.669V337.595L182.77 336.146H183.827Z" fill="#6B7280"/>
<path d="M256.748 336.146V344.874H255.725L250.969 338.021H250.884V344.874H249.827V336.146H250.85L255.623 343.016H255.708V336.146H256.748Z" fill="#6B7280"/>
<path d="M261.385 345.01C260.794 345.01 260.276 344.869 259.83 344.588C259.386 344.307 259.04 343.913 258.79 343.408C258.543 342.902 258.419 342.311 258.419 341.635C258.419 340.953 258.543 340.358 258.79 339.849C259.04 339.341 259.386 338.946 259.83 338.665C260.276 338.384 260.794 338.243 261.385 338.243C261.976 338.243 262.493 338.384 262.936 338.665C263.382 338.946 263.729 339.341 263.976 339.849C264.226 340.358 264.351 340.953 264.351 341.635C264.351 342.311 264.226 342.902 263.976 343.408C263.729 343.913 263.382 344.307 262.936 344.588C262.493 344.869 261.976 345.01 261.385 345.01ZM261.385 344.107C261.834 344.107 262.203 343.992 262.493 343.761C262.783 343.531 262.997 343.229 263.136 342.854C263.276 342.479 263.345 342.072 263.345 341.635C263.345 341.197 263.276 340.79 263.136 340.412C262.997 340.034 262.783 339.729 262.493 339.496C262.203 339.263 261.834 339.146 261.385 339.146C260.936 339.146 260.567 339.263 260.277 339.496C259.987 339.729 259.773 340.034 259.634 340.412C259.494 340.79 259.425 341.197 259.425 341.635C259.425 342.072 259.494 342.479 259.634 342.854C259.773 343.229 259.987 343.531 260.277 343.761C260.567 343.992 260.936 344.107 261.385 344.107Z" fill="#6B7280"/>
<path d="M271.004 338.328L268.584 344.874H267.561L265.14 338.328H266.231L268.038 343.544H268.106L269.913 338.328H271.004Z" fill="#6B7280"/>
<path d="M275.689 344.874V344.107L278.57 340.953C278.908 340.584 279.187 340.263 279.405 339.99C279.624 339.715 279.786 339.456 279.891 339.215C279.999 338.97 280.053 338.715 280.053 338.447C280.053 338.141 279.979 337.875 279.831 337.651C279.687 337.426 279.488 337.253 279.235 337.131C278.982 337.009 278.698 336.947 278.383 336.947C278.047 336.947 277.755 337.017 277.505 337.156C277.258 337.293 277.066 337.484 276.929 337.732C276.796 337.979 276.729 338.269 276.729 338.601H275.723C275.723 338.09 275.841 337.641 276.077 337.254C276.313 336.868 276.634 336.567 277.04 336.351C277.449 336.135 277.908 336.027 278.417 336.027C278.928 336.027 279.381 336.135 279.776 336.351C280.171 336.567 280.481 336.858 280.705 337.224C280.929 337.591 281.042 337.999 281.042 338.447C281.042 338.769 280.983 339.082 280.867 339.389C280.753 339.693 280.554 340.033 280.27 340.408C279.989 340.78 279.598 341.234 279.098 341.771L277.138 343.868V343.936H281.195V344.874H275.689Z" fill="#6B7280"/>
<path d="M285.802 344.993C285.16 344.993 284.613 344.818 284.161 344.469C283.709 344.117 283.364 343.607 283.125 342.939C282.887 342.269 282.767 341.459 282.767 340.51C282.767 339.567 282.887 338.761 283.125 338.094C283.367 337.423 283.713 336.912 284.165 336.56C284.62 336.205 285.165 336.027 285.802 336.027C286.438 336.027 286.982 336.205 287.434 336.56C287.888 336.912 288.235 337.423 288.473 338.094C288.715 338.761 288.836 339.567 288.836 340.51C288.836 341.459 288.716 342.269 288.478 342.939C288.239 343.607 287.894 344.117 287.442 344.469C286.99 344.818 286.444 344.993 285.802 344.993ZM285.802 344.055C286.438 344.055 286.932 343.749 287.285 343.135C287.637 342.521 287.813 341.646 287.813 340.51C287.813 339.754 287.732 339.111 287.57 338.58C287.411 338.048 287.181 337.644 286.88 337.365C286.581 337.087 286.222 336.947 285.802 336.947C285.171 336.947 284.678 337.259 284.323 337.881C283.968 338.5 283.79 339.376 283.79 340.51C283.79 341.266 283.87 341.908 284.029 342.436C284.188 342.965 284.417 343.367 284.715 343.642C285.016 343.918 285.378 344.055 285.802 344.055Z" fill="#6B7280"/>
<path d="M290.455 344.874V344.107L293.336 340.953C293.674 340.584 293.952 340.263 294.171 339.99C294.39 339.715 294.552 339.456 294.657 339.215C294.765 338.97 294.819 338.715 294.819 338.447C294.819 338.141 294.745 337.875 294.597 337.651C294.452 337.426 294.253 337.253 294 337.131C293.748 337.009 293.463 336.947 293.148 336.947C292.813 336.947 292.52 337.017 292.27 337.156C292.023 337.293 291.831 337.484 291.695 337.732C291.562 337.979 291.495 338.269 291.495 338.601H290.489C290.489 338.09 290.607 337.641 290.843 337.254C291.079 336.868 291.4 336.567 291.806 336.351C292.215 336.135 292.674 336.027 293.182 336.027C293.694 336.027 294.147 336.135 294.542 336.351C294.937 336.567 295.246 336.858 295.471 337.224C295.695 337.591 295.807 337.999 295.807 338.447C295.807 338.769 295.749 339.082 295.633 339.389C295.519 339.693 295.32 340.033 295.036 340.408C294.755 340.78 294.364 341.234 293.864 341.771L291.904 343.868V343.936H295.961V344.874H290.455Z" fill="#6B7280"/>
<path d="M300.789 336.146V344.874H299.732V337.254H299.681L297.55 338.669V337.595L299.732 336.146H300.789Z" fill="#6B7280"/>
<path d="M369.482 344.874H366.789V336.146H369.601C370.448 336.146 371.172 336.321 371.775 336.671C372.377 337.017 372.838 337.516 373.16 338.166C373.481 338.814 373.641 339.59 373.641 340.493C373.641 341.402 373.479 342.185 373.155 342.841C372.831 343.494 372.36 343.997 371.74 344.349C371.121 344.699 370.368 344.874 369.482 344.874ZM367.846 343.936H369.414C370.135 343.936 370.733 343.797 371.208 343.519C371.682 343.24 372.036 342.844 372.269 342.33C372.502 341.815 372.618 341.203 372.618 340.493C372.618 339.788 372.503 339.182 372.273 338.673C372.043 338.162 371.699 337.77 371.242 337.497C370.785 337.222 370.215 337.084 369.533 337.084H367.846V343.936Z" fill="#6B7280"/>
<path d="M378.022 345.01C377.391 345.01 376.847 344.871 376.39 344.592C375.935 344.311 375.584 343.919 375.337 343.416C375.093 342.911 374.971 342.322 374.971 341.652C374.971 340.982 375.093 340.391 375.337 339.879C375.584 339.365 375.928 338.965 376.368 338.678C376.812 338.388 377.329 338.243 377.919 338.243C378.26 338.243 378.597 338.3 378.929 338.413C379.262 338.527 379.564 338.712 379.837 338.967C380.11 339.22 380.327 339.555 380.489 339.973C380.651 340.391 380.732 340.905 380.732 341.516V341.942H375.687V341.072H379.709C379.709 340.703 379.635 340.374 379.488 340.084C379.343 339.794 379.135 339.565 378.865 339.398C378.598 339.23 378.283 339.146 377.919 339.146C377.519 339.146 377.172 339.246 376.88 339.445C376.59 339.641 376.367 339.896 376.211 340.212C376.054 340.527 375.976 340.865 375.976 341.226V341.805C375.976 342.3 376.062 342.719 376.232 343.063C376.405 343.403 376.645 343.663 376.952 343.842C377.259 344.019 377.615 344.107 378.022 344.107C378.286 344.107 378.525 344.07 378.738 343.996C378.954 343.919 379.14 343.805 379.296 343.655C379.452 343.501 379.573 343.311 379.658 343.084L380.63 343.357C380.527 343.686 380.356 343.976 380.114 344.226C379.873 344.473 379.574 344.666 379.219 344.805C378.864 344.942 378.465 345.01 378.022 345.01Z" fill="#6B7280"/>
<path d="M384.921 345.01C384.307 345.01 383.779 344.865 383.336 344.575C382.892 344.286 382.552 343.886 382.313 343.378C382.074 342.869 381.955 342.288 381.955 341.635C381.955 340.97 382.077 340.384 382.321 339.875C382.569 339.364 382.912 338.965 383.353 338.678C383.796 338.388 384.313 338.243 384.904 338.243C385.364 338.243 385.779 338.328 386.148 338.499C386.517 338.669 386.82 338.908 387.056 339.215C387.292 339.521 387.438 339.879 387.495 340.288H386.489C386.412 339.99 386.242 339.726 385.978 339.496C385.716 339.263 385.364 339.146 384.921 339.146C384.529 339.146 384.185 339.249 383.89 339.453C383.597 339.655 383.368 339.94 383.204 340.31C383.042 340.676 382.961 341.107 382.961 341.601C382.961 342.107 383.04 342.547 383.199 342.922C383.361 343.297 383.588 343.588 383.881 343.796C384.177 344.003 384.523 344.107 384.921 344.107C385.182 344.107 385.419 344.061 385.633 343.97C385.846 343.879 386.026 343.749 386.174 343.578C386.321 343.408 386.427 343.203 386.489 342.965H387.495C387.438 343.351 387.297 343.699 387.073 344.009C386.851 344.315 386.557 344.56 386.191 344.742C385.827 344.921 385.404 345.01 384.921 345.01Z" fill="#6B7280"/>
<path d="M392.323 344.874V344.107L395.204 340.953C395.542 340.584 395.82 340.263 396.039 339.99C396.258 339.715 396.419 339.456 396.525 339.215C396.633 338.97 396.687 338.715 396.687 338.447C396.687 338.141 396.613 337.875 396.465 337.651C396.32 337.426 396.121 337.253 395.868 337.131C395.615 337.009 395.331 336.947 395.016 336.947C394.681 336.947 394.388 337.017 394.138 337.156C393.891 337.293 393.699 337.484 393.563 337.732C393.429 337.979 393.363 338.269 393.363 338.601H392.357C392.357 338.09 392.475 337.641 392.711 337.254C392.946 336.868 393.267 336.567 393.674 336.351C394.083 336.135 394.542 336.027 395.05 336.027C395.562 336.027 396.015 336.135 396.41 336.351C396.804 336.567 397.114 336.858 397.338 337.224C397.563 337.591 397.675 337.999 397.675 338.447C397.675 338.769 397.617 339.082 397.5 339.389C397.387 339.693 397.188 340.033 396.904 340.408C396.623 340.78 396.232 341.234 395.732 341.771L393.772 343.868V343.936H397.829V344.874H392.323Z" fill="#6B7280"/>
<path d="M402.435 344.993C401.793 344.993 401.246 344.818 400.794 344.469C400.343 344.117 399.998 343.607 399.759 342.939C399.52 342.269 399.401 341.459 399.401 340.51C399.401 339.567 399.52 338.761 399.759 338.094C400 337.423 400.347 336.912 400.799 336.56C401.253 336.205 401.799 336.027 402.435 336.027C403.071 336.027 403.615 336.205 404.067 336.56C404.522 336.912 404.868 337.423 405.107 338.094C405.348 338.761 405.469 339.567 405.469 340.51C405.469 341.459 405.35 342.269 405.111 342.939C404.873 343.607 404.527 344.117 404.076 344.469C403.624 344.818 403.077 344.993 402.435 344.993ZM402.435 344.055C403.071 344.055 403.566 343.749 403.918 343.135C404.27 342.521 404.446 341.646 404.446 340.51C404.446 339.754 404.365 339.111 404.204 338.58C404.044 338.048 403.814 337.644 403.513 337.365C403.215 337.087 402.856 336.947 402.435 336.947C401.804 336.947 401.311 337.259 400.956 337.881C400.601 338.5 400.424 339.376 400.424 340.51C400.424 341.266 400.503 341.908 400.662 342.436C400.821 342.965 401.05 343.367 401.348 343.642C401.65 343.918 402.012 344.055 402.435 344.055Z" fill="#6B7280"/>
<path d="M407.088 344.874V344.107L409.969 340.953C410.307 340.584 410.586 340.263 410.804 339.99C411.023 339.715 411.185 339.456 411.29 339.215C411.398 338.97 411.452 338.715 411.452 338.447C411.452 338.141 411.378 337.875 411.231 337.651C411.086 337.426 410.887 337.253 410.634 337.131C410.381 337.009 410.097 336.947 409.782 336.947C409.446 336.947 409.154 337.017 408.904 337.156C408.657 337.293 408.465 337.484 408.329 337.732C408.195 337.979 408.128 338.269 408.128 338.601H407.123C407.123 338.09 407.24 337.641 407.476 337.254C407.712 336.868 408.033 336.567 408.439 336.351C408.848 336.135 409.307 336.027 409.816 336.027C410.327 336.027 410.78 336.135 411.175 336.351C411.57 336.567 411.88 336.858 412.104 337.224C412.329 337.591 412.441 337.999 412.441 338.447C412.441 338.769 412.383 339.082 412.266 339.389C412.152 339.693 411.954 340.033 411.669 340.408C411.388 340.78 410.998 341.234 410.498 341.771L408.537 343.868V343.936H412.594V344.874H407.088Z" fill="#6B7280"/>
<path d="M417.422 336.146V344.874H416.365V337.254H416.314L414.184 338.669V337.595L416.365 336.146H417.422Z" fill="#6B7280"/>
<path d="M487.326 336.146H488.383V342.385C488.383 342.942 488.28 343.415 488.076 343.804C487.871 344.193 487.583 344.489 487.211 344.69C486.838 344.892 486.4 344.993 485.894 344.993C485.417 344.993 484.992 344.906 484.62 344.733C484.248 344.557 483.955 344.307 483.742 343.983C483.529 343.659 483.422 343.274 483.422 342.828H484.462C484.462 343.075 484.523 343.291 484.645 343.476C484.77 343.658 484.941 343.8 485.157 343.902C485.373 344.004 485.618 344.055 485.894 344.055C486.198 344.055 486.456 343.992 486.669 343.864C486.883 343.736 487.044 343.548 487.155 343.301C487.269 343.051 487.326 342.746 487.326 342.385V336.146Z" fill="#6B7280"/>
<path d="M492.29 345.027C491.875 345.027 491.499 344.949 491.161 344.793C490.823 344.634 490.554 344.405 490.356 344.107C490.157 343.805 490.057 343.442 490.057 343.016C490.057 342.641 490.131 342.337 490.279 342.104C490.427 341.868 490.624 341.683 490.871 341.55C491.118 341.416 491.391 341.317 491.689 341.251C491.99 341.183 492.293 341.129 492.597 341.09C492.995 341.038 493.317 341 493.564 340.974C493.814 340.946 493.996 340.899 494.11 340.834C494.226 340.769 494.285 340.655 494.285 340.493V340.459C494.285 340.038 494.169 339.712 493.939 339.479C493.712 339.246 493.367 339.129 492.904 339.129C492.424 339.129 492.047 339.234 491.775 339.445C491.502 339.655 491.31 339.879 491.199 340.118L490.245 339.777C490.415 339.379 490.642 339.07 490.927 338.848C491.213 338.624 491.526 338.467 491.864 338.379C492.205 338.288 492.54 338.243 492.87 338.243C493.08 338.243 493.321 338.269 493.594 338.32C493.87 338.368 494.135 338.469 494.391 338.622C494.65 338.776 494.864 339.007 495.035 339.317C495.205 339.626 495.29 340.041 495.29 340.561V344.874H494.285V343.987H494.233C494.165 344.129 494.052 344.281 493.892 344.443C493.733 344.605 493.522 344.743 493.258 344.857C492.993 344.97 492.671 345.027 492.29 345.027ZM492.444 344.124C492.841 344.124 493.177 344.046 493.449 343.889C493.725 343.733 493.932 343.531 494.071 343.284C494.213 343.037 494.285 342.777 494.285 342.504V341.584C494.242 341.635 494.148 341.682 494.003 341.724C493.861 341.764 493.696 341.8 493.509 341.831C493.324 341.859 493.144 341.885 492.968 341.908C492.794 341.928 492.654 341.945 492.546 341.959C492.285 341.993 492.04 342.048 491.813 342.125C491.588 342.199 491.407 342.311 491.267 342.462C491.131 342.609 491.063 342.811 491.063 343.067C491.063 343.416 491.192 343.68 491.451 343.859C491.712 344.036 492.043 344.124 492.444 344.124Z" fill="#6B7280"/>
<path d="M498.131 340.936V344.874H497.126V338.328H498.097V339.351H498.183C498.336 339.019 498.569 338.751 498.881 338.55C499.194 338.345 499.597 338.243 500.092 338.243C500.535 338.243 500.923 338.334 501.255 338.516C501.587 338.695 501.846 338.967 502.031 339.334C502.215 339.697 502.308 340.158 502.308 340.715V344.874H501.302V340.783C501.302 340.269 501.168 339.868 500.901 339.581C500.634 339.291 500.268 339.146 499.802 339.146C499.481 339.146 499.194 339.216 498.941 339.355C498.691 339.494 498.494 339.697 498.349 339.965C498.204 340.232 498.131 340.555 498.131 340.936Z" fill="#6B7280"/>
<path d="M507.503 344.874V344.107L510.384 340.953C510.722 340.584 511 340.263 511.219 339.99C511.438 339.715 511.6 339.456 511.705 339.215C511.813 338.97 511.867 338.715 511.867 338.447C511.867 338.141 511.793 337.875 511.645 337.651C511.5 337.426 511.302 337.253 511.049 337.131C510.796 337.009 510.512 336.947 510.196 336.947C509.861 336.947 509.569 337.017 509.319 337.156C509.071 337.293 508.88 337.484 508.743 337.732C508.61 337.979 508.543 338.269 508.543 338.601H507.537C507.537 338.09 507.655 337.641 507.891 337.254C508.127 336.868 508.448 336.567 508.854 336.351C509.263 336.135 509.722 336.027 510.231 336.027C510.742 336.027 511.195 336.135 511.59 336.351C511.985 336.567 512.294 336.858 512.519 337.224C512.743 337.591 512.856 337.999 512.856 338.447C512.856 338.769 512.797 339.082 512.681 339.389C512.567 339.693 512.368 340.033 512.084 340.408C511.803 340.78 511.412 341.234 510.912 341.771L508.952 343.868V343.936H513.009V344.874H507.503Z" fill="#6B7280"/>
<path d="M517.615 344.993C516.973 344.993 516.427 344.818 515.975 344.469C515.523 344.117 515.178 343.607 514.939 342.939C514.701 342.269 514.581 341.459 514.581 340.51C514.581 339.567 514.701 338.761 514.939 338.094C515.181 337.423 515.527 336.912 515.979 336.56C516.434 336.205 516.979 336.027 517.615 336.027C518.252 336.027 518.796 336.205 519.248 336.56C519.702 336.912 520.049 337.423 520.287 338.094C520.529 338.761 520.65 339.567 520.65 340.51C520.65 341.459 520.53 342.269 520.292 342.939C520.053 343.607 519.708 344.117 519.256 344.469C518.804 344.818 518.258 344.993 517.615 344.993ZM517.615 344.055C518.252 344.055 518.746 343.749 519.098 343.135C519.451 342.521 519.627 341.646 519.627 340.51C519.627 339.754 519.546 339.111 519.384 338.58C519.225 338.048 518.995 337.644 518.694 337.365C518.395 337.087 518.036 336.947 517.615 336.947C516.985 336.947 516.492 337.259 516.137 337.881C515.782 338.5 515.604 339.376 515.604 340.51C515.604 341.266 515.684 341.908 515.843 342.436C516.002 342.965 516.231 343.367 516.529 343.642C516.83 343.918 517.192 344.055 517.615 344.055Z" fill="#6B7280"/>
<path d="M522.269 344.874V344.107L525.15 340.953C525.488 340.584 525.766 340.263 525.985 339.99C526.204 339.715 526.365 339.456 526.471 339.215C526.579 338.97 526.633 338.715 526.633 338.447C526.633 338.141 526.559 337.875 526.411 337.651C526.266 337.426 526.067 337.253 525.814 337.131C525.562 337.009 525.277 336.947 524.962 336.947C524.627 336.947 524.334 337.017 524.084 337.156C523.837 337.293 523.645 337.484 523.509 337.732C523.375 337.979 523.309 338.269 523.309 338.601H522.303C522.303 338.09 522.421 337.641 522.657 337.254C522.892 336.868 523.213 336.567 523.62 336.351C524.029 336.135 524.488 336.027 524.996 336.027C525.508 336.027 525.961 336.135 526.356 336.351C526.75 336.567 527.06 336.858 527.285 337.224C527.509 337.591 527.621 337.999 527.621 338.447C527.621 338.769 527.563 339.082 527.446 339.389C527.333 339.693 527.134 340.033 526.85 340.408C526.569 340.78 526.178 341.234 525.678 341.771L523.718 343.868V343.936H527.775V344.874H522.269Z" fill="#6B7280"/>
<path d="M529.535 344.874V344.107L532.415 340.953C532.753 340.584 533.032 340.263 533.25 339.99C533.469 339.715 533.631 339.456 533.736 339.215C533.844 338.97 533.898 338.715 533.898 338.447C533.898 338.141 533.824 337.875 533.677 337.651C533.532 337.426 533.333 337.253 533.08 337.131C532.827 337.009 532.543 336.947 532.228 336.947C531.892 336.947 531.6 337.017 531.35 337.156C531.103 337.293 530.911 337.484 530.775 337.732C530.641 337.979 530.574 338.269 530.574 338.601H529.569C529.569 338.09 529.687 337.641 529.922 337.254C530.158 336.868 530.479 336.567 530.885 336.351C531.294 336.135 531.753 336.027 532.262 336.027C532.773 336.027 533.226 336.135 533.621 336.351C534.016 336.567 534.326 336.858 534.55 337.224C534.775 337.591 534.887 337.999 534.887 338.447C534.887 338.769 534.829 339.082 534.712 339.389C534.598 339.693 534.4 340.033 534.115 340.408C533.834 340.78 533.444 341.234 532.944 341.771L530.983 343.868V343.936H535.04V344.874H529.535Z" fill="#6B7280"/>
<path d="M601.04 344.874V336.146H606.273V337.084H602.097V340.033H605.881V340.97H602.097V344.874H601.04Z" fill="#6B7280"/>
<path d="M610.211 345.01C609.58 345.01 609.036 344.871 608.579 344.592C608.124 344.311 607.773 343.919 607.526 343.416C607.282 342.911 607.16 342.322 607.16 341.652C607.16 340.982 607.282 340.391 607.526 339.879C607.773 339.365 608.117 338.965 608.557 338.678C609 338.388 609.517 338.243 610.108 338.243C610.449 338.243 610.786 338.3 611.118 338.413C611.451 338.527 611.753 338.712 612.026 338.967C612.299 339.22 612.516 339.555 612.678 339.973C612.84 340.391 612.921 340.905 612.921 341.516V341.942H607.875V341.072H611.898C611.898 340.703 611.824 340.374 611.677 340.084C611.532 339.794 611.324 339.565 611.054 339.398C610.787 339.23 610.472 339.146 610.108 339.146C609.708 339.146 609.361 339.246 609.069 339.445C608.779 339.641 608.556 339.896 608.4 340.212C608.243 340.527 608.165 340.865 608.165 341.226V341.805C608.165 342.3 608.25 342.719 608.421 343.063C608.594 343.403 608.834 343.663 609.141 343.842C609.448 344.019 609.804 344.107 610.211 344.107C610.475 344.107 610.713 344.07 610.927 343.996C611.142 343.919 611.329 343.805 611.485 343.655C611.641 343.501 611.762 343.311 611.847 343.084L612.819 343.357C612.716 343.686 612.544 343.976 612.303 344.226C612.061 344.473 611.763 344.666 611.408 344.805C611.053 344.942 610.654 345.01 610.211 345.01Z" fill="#6B7280"/>
<path d="M614.587 344.874V336.146H615.593V339.368H615.678C615.752 339.254 615.854 339.109 615.985 338.933C616.118 338.754 616.309 338.595 616.556 338.456C616.806 338.314 617.144 338.243 617.57 338.243C618.121 338.243 618.607 338.381 619.027 338.656C619.448 338.932 619.776 339.322 620.012 339.828C620.248 340.334 620.365 340.93 620.365 341.618C620.365 342.311 620.248 342.912 620.012 343.421C619.776 343.926 619.449 344.318 619.032 344.597C618.614 344.872 618.133 345.01 617.587 345.01C617.167 345.01 616.83 344.94 616.577 344.801C616.324 344.659 616.13 344.499 615.993 344.32C615.857 344.138 615.752 343.987 615.678 343.868H615.559V344.874H614.587ZM615.576 341.601C615.576 342.095 615.648 342.531 615.793 342.909C615.938 343.284 616.15 343.578 616.428 343.791C616.706 344.001 617.047 344.107 617.451 344.107C617.871 344.107 618.222 343.996 618.503 343.774C618.787 343.55 619 343.249 619.142 342.871C619.287 342.49 619.36 342.067 619.36 341.601C619.36 341.141 619.289 340.726 619.147 340.357C619.008 339.984 618.796 339.69 618.512 339.474C618.231 339.256 617.877 339.146 617.451 339.146C617.042 339.146 616.698 339.25 616.419 339.457C616.141 339.662 615.931 339.949 615.789 340.318C615.647 340.685 615.576 341.112 615.576 341.601Z" fill="#6B7280"/>
<path d="M625.262 344.874V344.107L628.142 340.953C628.481 340.584 628.759 340.263 628.978 339.99C629.196 339.715 629.358 339.456 629.463 339.215C629.571 338.97 629.625 338.715 629.625 338.447C629.625 338.141 629.552 337.875 629.404 337.651C629.259 337.426 629.06 337.253 628.807 337.131C628.554 337.009 628.27 336.947 627.955 336.947C627.62 336.947 627.327 337.017 627.077 337.156C626.83 337.293 626.638 337.484 626.502 337.732C626.368 337.979 626.302 338.269 626.302 338.601H625.296C625.296 338.09 625.414 337.641 625.65 337.254C625.885 336.868 626.206 336.567 626.613 336.351C627.022 336.135 627.481 336.027 627.989 336.027C628.5 336.027 628.954 336.135 629.348 336.351C629.743 336.567 630.053 336.858 630.277 337.224C630.502 337.591 630.614 337.999 630.614 338.447C630.614 338.769 630.556 339.082 630.439 339.389C630.326 339.693 630.127 340.033 629.843 340.408C629.561 340.78 629.171 341.234 628.671 341.771L626.711 343.868V343.936H630.767V344.874H625.262Z" fill="#6B7280"/>
<path d="M635.374 344.993C634.732 344.993 634.185 344.818 633.733 344.469C633.282 344.117 632.936 343.607 632.698 342.939C632.459 342.269 632.34 341.459 632.34 340.51C632.34 339.567 632.459 338.761 632.698 338.094C632.939 337.423 633.286 336.912 633.738 336.56C634.192 336.205 634.738 336.027 635.374 336.027C636.01 336.027 636.554 336.205 637.006 336.56C637.461 336.912 637.807 337.423 638.046 338.094C638.287 338.761 638.408 339.567 638.408 340.51C638.408 341.459 638.289 342.269 638.05 342.939C637.811 343.607 637.466 344.117 637.015 344.469C636.563 344.818 636.016 344.993 635.374 344.993ZM635.374 344.055C636.01 344.055 636.505 343.749 636.857 343.135C637.209 342.521 637.385 341.646 637.385 340.51C637.385 339.754 637.304 339.111 637.142 338.58C636.983 338.048 636.753 337.644 636.452 337.365C636.154 337.087 635.794 336.947 635.374 336.947C634.743 336.947 634.25 337.259 633.895 337.881C633.54 338.5 633.363 339.376 633.363 340.51C633.363 341.266 633.442 341.908 633.601 342.436C633.76 342.965 633.989 343.367 634.287 343.642C634.588 343.918 634.951 344.055 635.374 344.055Z" fill="#6B7280"/>
<path d="M640.027 344.874V344.107L642.908 340.953C643.246 340.584 643.525 340.263 643.743 339.99C643.962 339.715 644.124 339.456 644.229 339.215C644.337 338.97 644.391 338.715 644.391 338.447C644.391 338.141 644.317 337.875 644.169 337.651C644.025 337.426 643.826 337.253 643.573 337.131C643.32 337.009 643.036 336.947 642.721 336.947C642.385 336.947 642.093 337.017 641.843 337.156C641.596 337.293 641.404 337.484 641.267 337.732C641.134 337.979 641.067 338.269 641.067 338.601H640.061C640.061 338.09 640.179 337.641 640.415 337.254C640.651 336.868 640.972 336.567 641.378 336.351C641.787 336.135 642.246 336.027 642.755 336.027C643.266 336.027 643.719 336.135 644.114 336.351C644.509 336.567 644.819 336.858 645.043 337.224C645.267 337.591 645.38 337.999 645.38 338.447C645.38 338.769 645.321 339.082 645.205 339.389C645.091 339.693 644.892 340.033 644.608 340.408C644.327 340.78 643.936 341.234 643.436 341.771L641.476 343.868V343.936H645.533V344.874H640.027Z" fill="#6B7280"/>
<path d="M647.293 344.874V344.107L650.174 340.953C650.512 340.584 650.79 340.263 651.009 339.99C651.228 339.715 651.39 339.456 651.495 339.215C651.603 338.97 651.657 338.715 651.657 338.447C651.657 338.141 651.583 337.875 651.435 337.651C651.29 337.426 651.091 337.253 650.838 337.131C650.586 337.009 650.302 336.947 649.986 336.947C649.651 336.947 649.358 337.017 649.108 337.156C648.861 337.293 648.669 337.484 648.533 337.732C648.4 337.979 648.333 338.269 648.333 338.601H647.327C647.327 338.09 647.445 337.641 647.681 337.254C647.917 336.868 648.238 336.567 648.644 336.351C649.053 336.135 649.512 336.027 650.02 336.027C650.532 336.027 650.985 336.135 651.38 336.351C651.775 336.567 652.084 336.858 652.309 337.224C652.533 337.591 652.645 337.999 652.645 338.447C652.645 338.769 652.587 339.082 652.471 339.389C652.357 339.693 652.158 340.033 651.874 340.408C651.593 340.78 651.202 341.234 650.702 341.771L648.742 343.868V343.936H652.799V344.874H647.293Z" fill="#6B7280"/>
<path d="M718.799 336.146H720.06L723.026 343.391H723.128L726.094 336.146H727.356V344.874H726.367V338.243H726.282L723.554 344.874H722.6L719.873 338.243H719.787V344.874H718.799V336.146Z" fill="#6B7280"/>
<path d="M731.264 345.027C730.85 345.027 730.473 344.949 730.135 344.793C729.797 344.634 729.528 344.405 729.33 344.107C729.131 343.805 729.031 343.442 729.031 343.016C729.031 342.641 729.105 342.337 729.253 342.104C729.401 341.868 729.598 341.683 729.845 341.55C730.092 341.416 730.365 341.317 730.663 341.251C730.965 341.183 731.267 341.129 731.571 341.09C731.969 341.038 732.291 341 732.538 340.974C732.788 340.946 732.97 340.899 733.084 340.834C733.2 340.769 733.259 340.655 733.259 340.493V340.459C733.259 340.038 733.144 339.712 732.913 339.479C732.686 339.246 732.341 339.129 731.878 339.129C731.398 339.129 731.021 339.234 730.749 339.445C730.476 339.655 730.284 339.879 730.173 340.118L729.219 339.777C729.389 339.379 729.617 339.07 729.901 338.848C730.188 338.624 730.5 338.467 730.838 338.379C731.179 338.288 731.514 338.243 731.844 338.243C732.054 338.243 732.296 338.269 732.568 338.32C732.844 338.368 733.109 338.469 733.365 338.622C733.624 338.776 733.838 339.007 734.009 339.317C734.179 339.626 734.264 340.041 734.264 340.561V344.874H733.259V343.987H733.207C733.139 344.129 733.026 344.281 732.867 344.443C732.707 344.605 732.496 344.743 732.232 344.857C731.967 344.97 731.645 345.027 731.264 345.027ZM731.418 344.124C731.815 344.124 732.151 344.046 732.423 343.889C732.699 343.733 732.906 343.531 733.046 343.284C733.188 343.037 733.259 342.777 733.259 342.504V341.584C733.216 341.635 733.122 341.682 732.977 341.724C732.835 341.764 732.671 341.8 732.483 341.831C732.298 341.859 732.118 341.885 731.942 341.908C731.769 341.928 731.628 341.945 731.52 341.959C731.259 341.993 731.014 342.048 730.787 342.125C730.563 342.199 730.381 342.311 730.242 342.462C730.105 342.609 730.037 342.811 730.037 343.067C730.037 343.416 730.166 343.68 730.425 343.859C730.686 344.036 731.017 344.124 731.418 344.124Z" fill="#6B7280"/>
<path d="M736.1 344.874V338.328H737.071V339.317H737.14C737.259 338.993 737.475 338.73 737.787 338.528C738.1 338.327 738.452 338.226 738.844 338.226C738.918 338.226 739.01 338.227 739.121 338.23C739.232 338.233 739.316 338.237 739.373 338.243V339.266C739.339 339.257 739.26 339.244 739.138 339.227C739.019 339.207 738.892 339.197 738.759 339.197C738.441 339.197 738.157 339.264 737.907 339.398C737.66 339.528 737.464 339.71 737.319 339.943C737.177 340.173 737.106 340.436 737.106 340.732V344.874H736.1Z" fill="#6B7280"/>
<path d="M743.923 344.874V344.107L746.803 340.953C747.141 340.584 747.42 340.263 747.639 339.99C747.857 339.715 748.019 339.456 748.124 339.215C748.232 338.97 748.286 338.715 748.286 338.447C748.286 338.141 748.212 337.875 748.065 337.651C747.92 337.426 747.721 337.253 747.468 337.131C747.215 337.009 746.931 336.947 746.616 336.947C746.281 336.947 745.988 337.017 745.738 337.156C745.491 337.293 745.299 337.484 745.163 337.732C745.029 337.979 744.962 338.269 744.962 338.601H743.957C743.957 338.09 744.075 337.641 744.31 337.254C744.546 336.868 744.867 336.567 745.274 336.351C745.683 336.135 746.141 336.027 746.65 336.027C747.161 336.027 747.614 336.135 748.009 336.351C748.404 336.567 748.714 336.858 748.938 337.224C749.163 337.591 749.275 337.999 749.275 338.447C749.275 338.769 749.217 339.082 749.1 339.389C748.987 339.693 748.788 340.033 748.504 340.408C748.222 340.78 747.832 341.234 747.332 341.771L745.372 343.868V343.936H749.428V344.874H743.923Z" fill="#6B7280"/>
<path d="M754.035 344.993C753.393 344.993 752.846 344.818 752.394 344.469C751.943 344.117 751.597 343.607 751.359 342.939C751.12 342.269 751.001 341.459 751.001 340.51C751.001 339.567 751.12 338.761 751.359 338.094C751.6 337.423 751.947 336.912 752.399 336.56C752.853 336.205 753.399 336.027 754.035 336.027C754.671 336.027 755.215 336.205 755.667 336.56C756.122 336.912 756.468 337.423 756.707 338.094C756.948 338.761 757.069 339.567 757.069 340.51C757.069 341.459 756.95 342.269 756.711 342.939C756.472 343.607 756.127 344.117 755.676 344.469C755.224 344.818 754.677 344.993 754.035 344.993ZM754.035 344.055C754.671 344.055 755.166 343.749 755.518 343.135C755.87 342.521 756.046 341.646 756.046 340.51C756.046 339.754 755.965 339.111 755.803 338.58C755.644 338.048 755.414 337.644 755.113 337.365C754.815 337.087 754.455 336.947 754.035 336.947C753.404 336.947 752.911 337.259 752.556 337.881C752.201 338.5 752.024 339.376 752.024 340.51C752.024 341.266 752.103 341.908 752.262 342.436C752.421 342.965 752.65 343.367 752.948 343.642C753.249 343.918 753.612 344.055 754.035 344.055Z" fill="#6B7280"/>
<path d="M758.688 344.874V344.107L761.569 340.953C761.907 340.584 762.185 340.263 762.404 339.99C762.623 339.715 762.785 339.456 762.89 339.215C762.998 338.97 763.052 338.715 763.052 338.447C763.052 338.141 762.978 337.875 762.83 337.651C762.685 337.426 762.487 337.253 762.234 337.131C761.981 337.009 761.697 336.947 761.381 336.947C761.046 336.947 760.754 337.017 760.504 337.156C760.256 337.293 760.065 337.484 759.928 337.732C759.795 337.979 759.728 338.269 759.728 338.601H758.722C758.722 338.09 758.84 337.641 759.076 337.254C759.312 336.868 759.633 336.567 760.039 336.351C760.448 336.135 760.907 336.027 761.416 336.027C761.927 336.027 762.38 336.135 762.775 336.351C763.17 336.567 763.479 336.858 763.704 337.224C763.928 337.591 764.041 337.999 764.041 338.447C764.041 338.769 763.982 339.082 763.866 339.389C763.752 339.693 763.553 340.033 763.269 340.408C762.988 340.78 762.597 341.234 762.097 341.771L760.137 343.868V343.936H764.194V344.874H758.688Z" fill="#6B7280"/>
<path d="M765.954 344.874V344.107L768.835 340.953C769.173 340.584 769.451 340.263 769.67 339.99C769.889 339.715 770.051 339.456 770.156 339.215C770.264 338.97 770.318 338.715 770.318 338.447C770.318 338.141 770.244 337.875 770.096 337.651C769.951 337.426 769.752 337.253 769.499 337.131C769.247 337.009 768.962 336.947 768.647 336.947C768.312 336.947 768.019 337.017 767.769 337.156C767.522 337.293 767.33 337.484 767.194 337.732C767.06 337.979 766.994 338.269 766.994 338.601H765.988C765.988 338.09 766.106 337.641 766.342 337.254C766.577 336.868 766.899 336.567 767.305 336.351C767.714 336.135 768.173 336.027 768.681 336.027C769.193 336.027 769.646 336.135 770.041 336.351C770.435 336.567 770.745 336.858 770.97 337.224C771.194 337.591 771.306 337.999 771.306 338.447C771.306 338.769 771.248 339.082 771.131 339.389C771.018 339.693 770.819 340.033 770.535 340.408C770.254 340.78 769.863 341.234 769.363 341.771L767.403 343.868V343.936H771.46V344.874H765.954Z" fill="#6B7280"/>
<path fill-rule="evenodd" clip-rule="evenodd" d="M595.602 180.647C578.235 188.989 560.193 203.561 545.882 222.578C533.802 238.63 519.276 244.026 505.939 244C492.831 243.974 481.148 238.719 474.307 233.847C465.943 228.83 452.22 221.118 438.168 214.247C423.973 207.306 409.765 201.389 400.409 199.799C392.209 198.405 388.3 198.315 383.581 198.206C381.361 198.154 378.961 198.099 375.851 197.902C366.298 197.296 350.674 195.336 313.953 187.907C277.372 180.507 258.181 180.609 245.504 183.797C239.197 185.383 234.398 187.76 229.762 190.512C228.13 191.482 226.458 192.538 224.725 193.633C221.667 195.566 218.419 197.618 214.866 199.522C196.799 209.201 166.075 217.577 153.055 220.551C151.69 220.863 150.312 220.083 149.978 218.809C149.643 217.535 150.479 216.25 151.845 215.938C164.814 212.975 194.932 204.724 212.331 195.402C215.766 193.562 218.677 191.719 221.596 189.871C223.364 188.751 225.136 187.629 227.029 186.505C231.924 183.599 237.205 180.965 244.179 179.211C258.063 175.719 278.236 175.821 315.032 183.265C351.689 190.681 367.022 192.581 376.196 193.163C378.963 193.338 381.232 193.392 383.406 193.444C388.306 193.56 392.73 193.666 401.321 195.126C411.532 196.861 426.369 203.116 440.531 210.04C454.788 217.01 468.689 224.826 477.149 229.904L477.237 229.958L477.321 230.018C483.486 234.431 494.156 239.227 505.95 239.25C517.569 239.273 530.559 234.674 541.716 219.849C556.45 200.27 575.097 185.153 593.272 176.424C611.328 167.751 629.492 165.137 642.811 171.604C650.651 175.411 660.952 181.119 671.79 187.124C677.935 190.529 684.254 194.03 690.393 197.335C698.929 201.928 707.15 206.159 714.213 209.31C721.387 212.511 727.016 214.431 730.502 214.689C734.474 214.983 737.678 215.117 741.238 214.769C744.796 214.421 748.81 213.581 754.326 211.838C765.433 208.329 782.296 201.27 813.292 187.596C838.783 176.349 871.087 177.044 900.783 182.258C930.549 187.483 958.131 197.327 974.489 204.831C975.75 205.41 976.27 206.833 975.65 208.01C975.029 209.187 973.504 209.672 972.242 209.094C956.241 201.753 929.096 192.061 899.842 186.926C870.516 181.777 839.506 181.285 815.468 191.89C784.551 205.529 767.401 212.722 755.959 216.337C750.201 218.157 745.806 219.098 741.769 219.493C737.733 219.887 734.154 219.724 730.1 219.424C725.56 219.088 719.15 216.778 712.017 213.596C704.773 210.364 696.416 206.059 687.85 201.449C681.553 198.06 675.157 194.516 668.982 191.094C658.252 185.147 648.187 179.569 640.461 175.818C629.321 170.409 613.089 172.248 595.602 180.647Z" fill="#FB896B"/>
<path fill-rule="evenodd" clip-rule="evenodd" d="M668.888 234.102C661.343 235.785 653.716 236.962 646.566 236.962C643.258 236.962 639.374 236.886 635.049 236.802C622.354 236.554 605.868 236.232 589.067 237.538C566.603 239.284 544.349 243.903 530.786 255.198C519.246 264.808 506.688 270.322 495.157 272.663C483.684 274.991 473.127 274.179 465.988 271.006C461.604 269.343 456.666 266.436 451.549 263.114C448.363 261.045 445.005 258.745 441.595 256.409C439.478 254.96 437.342 253.497 435.215 252.067C429.607 248.298 423.995 244.712 418.637 241.95C413.208 239.151 408.363 237.371 404.301 236.939C396.295 236.086 392.146 236.546 386.588 237.163C384.21 237.426 381.575 237.719 378.27 237.949C367.476 238.701 350.808 238.577 314.933 234.029C297.425 231.809 283.546 232.381 272.242 234.528C260.927 236.678 252.02 240.438 244.543 244.747C237.853 248.602 232.373 252.854 227.307 256.785C226.686 257.267 226.071 257.744 225.461 258.214C219.996 262.433 214.724 266.325 208.804 268.312C203.866 269.97 198.451 270.233 193.108 269.813C187.797 269.396 182.391 268.291 177.326 267.109C175.458 266.674 173.658 266.233 171.917 265.807C168.816 265.048 165.899 264.335 163.11 263.772C158.727 262.888 155.382 262.543 152.975 262.887C151.644 263.078 150.302 262.602 149.976 261.824C149.65 261.046 150.464 260.261 151.795 260.07C155.718 259.509 160.276 260.132 164.728 261.03C167.652 261.62 170.841 262.4 174.055 263.185C175.763 263.603 177.478 264.022 179.165 264.415C184.153 265.579 189.09 266.571 193.768 266.939C198.414 267.304 202.633 267.04 206.334 265.797C211.214 264.158 215.89 260.799 221.507 256.463C222.11 255.998 222.722 255.523 223.344 255.04C228.389 251.124 234.093 246.697 241.061 242.681C248.919 238.153 258.466 234.096 270.709 231.77C282.961 229.442 297.743 228.881 315.984 231.194C351.605 235.71 367.664 235.767 377.683 235.069C380.4 234.88 382.773 234.618 385.05 234.366C390.968 233.713 396.234 233.131 405.19 234.085C410.661 234.668 416.368 236.914 421.917 239.774C427.537 242.672 433.329 246.38 438.957 250.163C441.155 251.641 443.318 253.122 445.443 254.577C448.811 256.884 452.081 259.124 455.236 261.173C460.393 264.522 464.971 267.174 468.758 268.599L468.844 268.631L468.926 268.668C474.447 271.145 483.203 272.018 493.53 269.922C503.844 267.829 515.625 262.776 526.726 253.532C541.464 241.258 565.403 236.451 588.413 234.663C605.672 233.321 622.844 233.657 635.575 233.907C639.774 233.989 643.489 234.062 646.566 234.062C652.849 234.062 659.827 233.018 667.121 231.392C674.399 229.77 681.829 227.605 689.008 225.432C690.419 225.005 691.822 224.577 693.213 224.153C698.849 222.433 704.284 220.776 709.181 219.503C715.186 217.942 720.906 216.813 725.508 217.026C728.089 217.146 731.024 217.969 734.037 219.023C737.136 220.107 740.709 221.581 744.638 223.231C745.324 223.519 746.021 223.813 746.731 224.111C754.216 227.263 763.042 230.98 773.013 234.247C794.828 241.396 821.631 246.238 850.743 238.189C863.085 234.776 873.8 233.419 883.461 233.504C893.126 233.589 901.577 235.116 909.387 237.338C917.098 239.532 924.251 242.425 931.295 245.275L931.453 245.339C938.601 248.23 945.656 251.077 953.345 253.288C954.575 253.642 955.081 254.511 954.477 255.229C953.872 255.948 952.386 256.244 951.157 255.891C943.083 253.57 935.731 250.596 928.631 247.724C921.476 244.83 914.586 242.043 907.216 239.946C899.888 237.861 892.154 236.481 883.387 236.404C874.615 236.327 864.65 237.552 852.863 240.811C821.649 249.441 793.027 244.131 770.588 236.778C760.358 233.425 751.312 229.615 743.848 226.472C743.132 226.17 742.431 225.875 741.744 225.587C737.795 223.928 734.384 222.524 731.49 221.512C728.51 220.47 726.445 219.979 725.116 219.917C721.898 219.768 717.223 220.587 711.195 222.153C706.455 223.385 701.201 224.988 695.579 226.702C694.172 227.132 692.741 227.568 691.289 228.008C684.095 230.185 676.45 232.417 668.888 234.102Z" fill="#6956E5"/>
<g filter="url(#filter1_f_15_256)">
<path fill-rule="evenodd" clip-rule="evenodd" d="M681.35 240.08C673.567 241.667 665.691 242.013 658.736 239.623C647.225 235.668 624.922 234.252 601.68 237.311C578.522 240.36 555.112 247.766 541.097 260.946C529.255 272.083 516.367 278.472 504.534 281.184C492.76 283.882 481.927 282.941 474.601 279.264C470.102 277.337 465.035 273.969 459.784 270.119C456.514 267.721 453.068 265.056 449.568 262.349C447.396 260.669 445.204 258.974 443.021 257.317C437.267 252.949 431.508 248.795 426.009 245.593C420.438 242.35 415.466 240.287 411.297 239.786C403.082 238.798 398.824 239.331 393.12 240.046C390.68 240.351 387.976 240.69 384.584 240.957C373.507 241.829 356.402 241.685 319.587 236.414C301.621 233.842 287.378 234.504 275.777 236.993C264.166 239.484 255.025 243.842 247.352 248.835C240.487 253.302 234.863 258.229 229.664 262.785C229.027 263.343 228.396 263.896 227.77 264.441C222.162 269.33 216.751 273.84 210.677 276.143C205.609 278.064 200.052 278.369 194.569 277.882C189.119 277.399 183.572 276.118 178.374 274.749C176.457 274.244 174.61 273.734 172.823 273.24C169.64 272.36 166.647 271.533 163.785 270.882C159.287 269.857 155.855 269.457 153.384 269.856C152.019 270.077 150.641 269.525 150.306 268.624C149.972 267.722 150.808 266.813 152.173 266.592C156.199 265.941 160.877 266.664 165.445 267.704C168.446 268.388 171.719 269.291 175.017 270.201C176.77 270.685 178.53 271.171 180.26 271.627C185.38 272.976 190.446 274.125 195.247 274.551C200.014 274.974 204.344 274.668 208.142 273.228C213.15 271.329 217.948 267.436 223.713 262.412C224.331 261.872 224.959 261.322 225.597 260.763C230.775 256.225 236.629 251.094 243.779 246.441C251.843 241.193 261.64 236.491 274.204 233.796C286.777 231.099 301.946 230.449 320.665 233.129C357.22 238.363 373.7 238.429 383.981 237.619C386.769 237.4 389.205 237.096 391.541 236.805C397.615 236.048 403.019 235.374 412.21 236.479C417.824 237.155 423.681 239.757 429.375 243.072C435.142 246.43 441.086 250.727 446.862 255.111C449.117 256.823 451.337 258.54 453.517 260.226C456.973 262.9 460.329 265.496 463.567 267.869C468.86 271.751 473.558 274.824 477.443 276.475L477.532 276.513L477.616 276.555C483.281 279.426 492.267 280.438 502.865 278.009C513.449 275.583 525.539 269.728 536.931 259.015C551.958 244.883 576.768 237.163 600.685 234.015C624.516 230.878 648.141 232.194 661.086 236.642C666.36 238.454 672.693 238.327 679.848 236.869C687 235.41 694.61 232.692 702.145 229.66C705.367 228.364 708.64 226.981 711.838 225.63C715.932 223.9 719.902 222.223 723.482 220.846C726.736 219.595 729.852 218.515 732.715 217.773C735.541 217.041 738.352 216.576 740.923 216.71C743.572 216.849 746.584 217.804 749.675 219.025C752.855 220.281 756.522 221.989 760.554 223.901C761.258 224.234 761.974 224.575 762.702 224.921C770.383 228.574 779.441 232.881 789.673 236.667C812.059 244.952 839.565 250.562 869.439 241.235C882.106 237.28 893.101 235.707 903.016 235.806C912.933 235.904 921.606 237.673 929.621 240.248C937.534 242.791 944.875 246.144 952.103 249.446L952.265 249.52C959.601 252.871 966.84 256.17 974.732 258.732C975.993 259.142 976.513 260.149 975.892 260.982C975.272 261.815 973.747 262.158 972.485 261.749C964.2 259.059 956.656 255.613 949.369 252.284C942.027 248.93 934.956 245.701 927.393 243.271C919.873 240.855 911.937 239.256 902.939 239.166C893.938 239.077 883.711 240.497 871.615 244.274C839.584 254.275 810.212 248.121 787.184 239.599C776.687 235.715 767.403 231.299 759.743 227.656C759.009 227.307 758.289 226.965 757.585 226.631C753.531 224.709 750.031 223.082 747.062 221.909C744.003 220.701 741.884 220.132 740.521 220.061C739.08 219.986 737.119 220.243 734.574 220.902C732.066 221.552 729.209 222.534 726.044 223.751C722.466 225.127 718.72 226.711 714.766 228.384C711.585 229.73 708.268 231.132 704.794 232.53C697.189 235.591 689.134 238.493 681.35 240.08Z" fill="#BEB5F4"/>
</g>
<g filter="url(#filter2_f_15_256)">
<path fill-rule="evenodd" clip-rule="evenodd" d="M595.885 205.486C578.519 211.389 560.479 221.701 546.17 235.158C534.091 246.517 519.566 250.336 506.231 250.317C493.124 250.298 481.442 246.58 474.602 243.132C466.239 239.582 452.518 234.125 438.467 229.263C424.273 224.351 410.066 220.164 400.711 219.038C392.513 218.052 388.604 217.988 383.885 217.911C381.665 217.875 379.266 217.836 376.156 217.696C366.604 217.268 350.982 215.881 314.265 210.624C277.687 205.387 258.498 205.459 245.823 207.715C239.516 208.838 234.718 210.519 230.083 212.467C228.451 213.153 226.779 213.901 225.046 214.676C221.988 216.043 218.741 217.495 215.188 218.843C197.123 225.692 166.402 231.619 153.384 233.724C152.019 233.945 150.641 233.393 150.306 232.491C149.972 231.59 150.808 230.68 152.173 230.459C165.141 228.362 195.256 222.524 212.653 215.928C216.088 214.625 218.998 213.321 221.917 212.013C223.686 211.221 225.457 210.427 227.35 209.632C232.244 207.575 237.525 205.711 244.498 204.47C258.38 201.999 278.551 202.071 315.344 207.339C351.997 212.587 367.328 213.931 376.501 214.343C379.268 214.467 381.536 214.505 383.71 214.542C388.61 214.624 393.034 214.699 401.624 215.732C411.834 216.96 426.669 221.386 440.83 226.286C455.085 231.218 468.984 236.749 477.443 240.342L477.532 240.38L477.616 240.423C483.78 243.546 494.449 246.939 506.241 246.956C517.859 246.972 530.848 243.718 542.004 233.227C556.736 219.372 575.382 208.675 593.555 202.498C611.609 196.361 629.771 194.511 643.089 199.087C650.928 201.781 661.228 205.82 672.064 210.07C678.209 212.479 684.527 214.957 690.666 217.295C699.201 220.545 707.42 223.539 714.483 225.769C721.657 228.034 727.285 229.393 730.771 229.576C734.742 229.784 737.946 229.878 741.506 229.632C745.063 229.386 749.076 228.792 754.592 227.558C765.697 225.075 782.559 220.08 813.551 210.403C839.04 202.445 871.341 202.937 901.034 206.626C930.796 210.324 958.376 217.29 974.732 222.6C975.993 223.009 976.513 224.017 975.892 224.849C975.272 225.682 973.747 226.026 972.485 225.616C956.486 220.422 929.344 213.563 900.092 209.929C870.77 206.286 839.763 205.937 815.727 213.442C784.814 223.094 767.665 228.183 756.225 230.742C750.467 232.029 746.073 232.696 742.036 232.975C738.001 233.254 734.422 233.139 730.368 232.926C725.829 232.689 719.42 231.054 712.287 228.802C705.044 226.515 696.688 223.469 688.122 220.206C681.826 217.809 675.431 215.3 669.257 212.879C658.528 208.67 648.464 204.723 640.739 202.069C629.599 198.241 613.369 199.543 595.885 205.486Z" fill="#FB896B" fill-opacity="0.5"/>
</g>
<g filter="url(#filter3_d_15_256)">
<path d="M627.46 171.337C627.46 168.088 631.448 165.455 636.368 165.455C641.288 165.455 645.276 168.088 645.276 171.337C645.276 174.585 641.288 177.219 636.368 177.219C631.448 177.219 627.46 174.585 627.46 171.337Z" fill="#FB896B"/>
</g>
<g filter="url(#filter4_d_15_256)">
<path fill-rule="evenodd" clip-rule="evenodd" d="M630.005 171.337C630.005 173.657 632.854 175.538 636.368 175.538C639.882 175.538 642.731 173.657 642.731 171.337C642.731 169.016 639.882 167.135 636.368 167.135C632.854 167.135 630.005 169.016 630.005 171.337ZM636.368 165.455C631.448 165.455 627.46 168.088 627.46 171.337C627.46 174.585 631.448 177.219 636.368 177.219C641.288 177.219 645.276 174.585 645.276 171.337C645.276 168.088 641.288 165.455 636.368 165.455Z" fill="white"/>
</g>
<g filter="url(#filter5_d_15_256)">
<path fill-rule="evenodd" clip-rule="evenodd" d="M571.465 100.744C564.437 100.744 558.739 103.849 558.739 107.678V149.279C558.739 153.109 564.437 156.213 571.465 156.213H623.143L635.266 167.653C635.756 168.116 636.981 168.116 637.47 167.653L649.594 156.213H701.271C708.3 156.213 713.997 153.109 713.997 149.279V107.678C713.997 103.849 708.3 100.744 701.271 100.744H571.465Z" fill="white"/>
</g>
<path d="M593.101 120.338C593.101 124.204 589.967 127.338 586.101 127.338C582.235 127.338 579.101 124.204 579.101 120.338C579.101 116.472 582.235 113.338 586.101 113.338C589.967 113.338 593.101 116.472 593.101 120.338Z" fill="#F5866A"/>
<path d="M605.595 125.977C604.939 125.977 604.354 125.865 603.84 125.639C603.33 125.414 602.924 125.101 602.622 124.7C602.324 124.295 602.162 123.826 602.135 123.293H603.388C603.415 123.621 603.527 123.904 603.726 124.143C603.925 124.378 604.185 124.56 604.507 124.69C604.828 124.819 605.184 124.884 605.576 124.884C606.013 124.884 606.401 124.807 606.739 124.655C607.077 124.502 607.342 124.29 607.534 124.019C607.727 123.747 607.823 123.432 607.823 123.074C607.823 122.699 607.73 122.37 607.544 122.085C607.359 121.796 607.087 121.571 606.729 121.408C606.371 121.246 605.933 121.165 605.416 121.165H604.601V120.071H605.416C605.821 120.071 606.175 119.998 606.48 119.852C606.789 119.707 607.029 119.501 607.201 119.236C607.377 118.971 607.465 118.659 607.465 118.301C607.465 117.957 607.388 117.657 607.236 117.401C607.084 117.146 606.868 116.947 606.59 116.805C606.315 116.662 605.99 116.591 605.615 116.591C605.264 116.591 604.933 116.656 604.621 116.785C604.313 116.911 604.061 117.095 603.865 117.337C603.67 117.575 603.564 117.864 603.547 118.202H602.354C602.374 117.668 602.535 117.201 602.836 116.8C603.138 116.395 603.532 116.081 604.019 115.855C604.51 115.63 605.049 115.517 605.635 115.517C606.265 115.517 606.805 115.645 607.256 115.9C607.707 116.152 608.053 116.485 608.295 116.899C608.537 117.314 608.658 117.761 608.658 118.242C608.658 118.815 608.507 119.304 608.205 119.708C607.907 120.113 607.501 120.393 606.987 120.548V120.628C607.63 120.734 608.133 121.007 608.494 121.448C608.855 121.886 609.036 122.428 609.036 123.074C609.036 123.627 608.885 124.125 608.583 124.565C608.285 125.003 607.877 125.348 607.36 125.6C606.843 125.851 606.255 125.977 605.595 125.977ZM614.39 125.977C613.641 125.977 613.003 125.774 612.476 125.366C611.949 124.955 611.546 124.36 611.268 123.581C610.99 122.799 610.85 121.854 610.85 120.747C610.85 119.647 610.99 118.707 611.268 117.928C611.55 117.146 611.954 116.55 612.481 116.139C613.011 115.724 613.648 115.517 614.39 115.517C615.133 115.517 615.767 115.724 616.294 116.139C616.825 116.55 617.229 117.146 617.507 117.928C617.789 118.707 617.93 119.647 617.93 120.747C617.93 121.854 617.791 122.799 617.512 123.581C617.234 124.36 616.831 124.955 616.304 125.366C615.777 125.774 615.139 125.977 614.39 125.977ZM614.39 124.884C615.133 124.884 615.709 124.526 616.12 123.81C616.531 123.094 616.737 122.073 616.737 120.747C616.737 119.866 616.642 119.115 616.453 118.495C616.268 117.875 615.999 117.403 615.648 117.078C615.3 116.753 614.881 116.591 614.39 116.591C613.654 116.591 613.079 116.954 612.665 117.68C612.251 118.402 612.044 119.425 612.044 120.747C612.044 121.629 612.136 122.378 612.322 122.994C612.508 123.611 612.774 124.08 613.122 124.401C613.474 124.723 613.896 124.884 614.39 124.884ZM623.14 125.977C622.391 125.977 621.753 125.774 621.226 125.366C620.699 124.955 620.296 124.36 620.018 123.581C619.74 122.799 619.6 121.854 619.6 120.747C619.6 119.647 619.74 118.707 620.018 117.928C620.3 117.146 620.704 116.55 621.231 116.139C621.761 115.724 622.398 115.517 623.14 115.517C623.883 115.517 624.517 115.724 625.044 116.139C625.575 116.55 625.979 117.146 626.257 117.928C626.539 118.707 626.68 119.647 626.68 120.747C626.68 121.854 626.541 122.799 626.262 123.581C625.984 124.36 625.581 124.955 625.054 125.366C624.527 125.774 623.889 125.977 623.14 125.977ZM623.14 124.884C623.883 124.884 624.459 124.526 624.87 123.81C625.281 123.094 625.487 122.073 625.487 120.747C625.487 119.866 625.392 119.115 625.203 118.495C625.018 117.875 624.749 117.403 624.398 117.078C624.05 116.753 623.631 116.591 623.14 116.591C622.404 116.591 621.829 116.954 621.415 117.68C621.001 118.402 620.794 119.425 620.794 120.747C620.794 121.629 620.886 122.378 621.072 122.994C621.258 123.611 621.524 124.08 621.872 124.401C622.224 124.723 622.646 124.884 623.14 124.884ZM631.89 125.977C631.141 125.977 630.503 125.774 629.976 125.366C629.449 124.955 629.046 124.36 628.768 123.581C628.49 122.799 628.35 121.854 628.35 120.747C628.35 119.647 628.49 118.707 628.768 117.928C629.05 117.146 629.454 116.55 629.981 116.139C630.511 115.724 631.148 115.517 631.89 115.517C632.633 115.517 633.267 115.724 633.794 116.139C634.325 116.55 634.729 117.146 635.007 117.928C635.289 118.707 635.43 119.647 635.43 120.747C635.43 121.854 635.291 122.799 635.012 123.581C634.734 124.36 634.331 124.955 633.804 125.366C633.277 125.774 632.639 125.977 631.89 125.977ZM631.89 124.884C632.633 124.884 633.209 124.526 633.62 123.81C634.031 123.094 634.237 122.073 634.237 120.747C634.237 119.866 634.142 119.115 633.953 118.495C633.768 117.875 633.499 117.403 633.148 117.078C632.8 116.753 632.381 116.591 631.89 116.591C631.154 116.591 630.579 116.954 630.165 117.68C629.751 118.402 629.544 119.425 629.544 120.747C629.544 121.629 629.636 122.378 629.822 122.994C630.008 123.611 630.274 124.08 630.622 124.401C630.974 124.723 631.396 124.884 631.89 124.884ZM641.436 115.656H642.907L646.367 124.108H646.487L649.947 115.656H651.419V125.838H650.265V118.102H650.166L646.984 125.838H645.87L642.688 118.102H642.589V125.838H641.436V115.656ZM653.732 125.838V118.202H654.905V125.838H653.732ZM654.328 116.929C654.099 116.929 653.902 116.851 653.737 116.695C653.574 116.54 653.493 116.352 653.493 116.134C653.493 115.915 653.574 115.728 653.737 115.572C653.902 115.416 654.099 115.338 654.328 115.338C654.557 115.338 654.752 115.416 654.915 115.572C655.081 115.728 655.163 115.915 655.163 116.134C655.163 116.352 655.081 116.54 654.915 116.695C654.752 116.851 654.557 116.929 654.328 116.929ZM662.463 119.912L661.409 120.21C661.343 120.035 661.245 119.864 661.116 119.698C660.99 119.529 660.817 119.39 660.599 119.281C660.38 119.171 660.1 119.117 659.758 119.117C659.291 119.117 658.902 119.224 658.59 119.44C658.282 119.652 658.128 119.922 658.128 120.25C658.128 120.542 658.234 120.772 658.446 120.941C658.658 121.11 658.989 121.251 659.44 121.364L660.574 121.642C661.256 121.808 661.765 122.061 662.1 122.403C662.435 122.741 662.602 123.177 662.602 123.71C662.602 124.148 662.476 124.539 662.224 124.884C661.976 125.228 661.628 125.5 661.18 125.699C660.733 125.898 660.212 125.997 659.619 125.997C658.84 125.997 658.196 125.828 657.685 125.49C657.175 125.152 656.852 124.658 656.716 124.009L657.829 123.73C657.935 124.141 658.136 124.449 658.431 124.655C658.729 124.86 659.119 124.963 659.599 124.963C660.146 124.963 660.58 124.847 660.902 124.615C661.227 124.38 661.389 124.098 661.389 123.77C661.389 123.505 661.296 123.283 661.111 123.104C660.925 122.921 660.64 122.786 660.256 122.696L658.983 122.398C658.283 122.232 657.77 121.975 657.442 121.627C657.117 121.276 656.954 120.837 656.954 120.31C656.954 119.879 657.075 119.498 657.317 119.166C657.563 118.835 657.896 118.575 658.317 118.386C658.741 118.197 659.221 118.102 659.758 118.102C660.514 118.102 661.107 118.268 661.538 118.6C661.972 118.931 662.281 119.368 662.463 119.912ZM669.777 119.912L668.723 120.21C668.657 120.035 668.559 119.864 668.43 119.698C668.304 119.529 668.132 119.39 667.913 119.281C667.694 119.171 667.414 119.117 667.073 119.117C666.606 119.117 666.216 119.224 665.905 119.44C665.596 119.652 665.442 119.922 665.442 120.25C665.442 120.542 665.548 120.772 665.76 120.941C665.972 121.11 666.304 121.251 666.755 121.364L667.888 121.642C668.571 121.808 669.08 122.061 669.414 122.403C669.749 122.741 669.917 123.177 669.917 123.71C669.917 124.148 669.791 124.539 669.539 124.884C669.29 125.228 668.942 125.5 668.495 125.699C668.047 125.898 667.527 125.997 666.934 125.997C666.155 125.997 665.51 125.828 665 125.49C664.489 125.152 664.166 124.658 664.03 124.009L665.144 123.73C665.25 124.141 665.45 124.449 665.745 124.655C666.044 124.86 666.433 124.963 666.914 124.963C667.461 124.963 667.895 124.847 668.216 124.615C668.541 124.38 668.704 124.098 668.704 123.77C668.704 123.505 668.611 123.283 668.425 123.104C668.24 122.921 667.954 122.786 667.57 122.696L666.297 122.398C665.598 122.232 665.084 121.975 664.756 121.627C664.431 121.276 664.269 120.837 664.269 120.31C664.269 119.879 664.39 119.498 664.632 119.166C664.877 118.835 665.21 118.575 665.631 118.386C666.055 118.197 666.536 118.102 667.073 118.102C667.829 118.102 668.422 118.268 668.853 118.6C669.287 118.931 669.595 119.368 669.777 119.912ZM671.683 125.838V118.202H672.856V125.838H671.683ZM672.279 116.929C672.051 116.929 671.853 116.851 671.688 116.695C671.525 116.54 671.444 116.352 671.444 116.134C671.444 115.915 671.525 115.728 671.688 115.572C671.853 115.416 672.051 115.338 672.279 115.338C672.508 115.338 672.704 115.416 672.866 115.572C673.032 115.728 673.115 115.915 673.115 116.134C673.115 116.352 673.032 116.54 672.866 116.695C672.704 116.851 672.508 116.929 672.279 116.929ZM676.178 121.244V125.838H675.005V118.202H676.139V119.395H676.238C676.417 119.007 676.689 118.696 677.053 118.46C677.418 118.222 677.889 118.102 678.465 118.102C678.982 118.102 679.435 118.208 679.822 118.421C680.21 118.629 680.512 118.948 680.727 119.375C680.943 119.799 681.05 120.336 681.05 120.986V125.838H679.877V121.065C679.877 120.466 679.721 119.998 679.41 119.663C679.098 119.325 678.671 119.156 678.127 119.156C677.753 119.156 677.418 119.238 677.123 119.4C676.831 119.562 676.601 119.799 676.432 120.111C676.263 120.422 676.178 120.8 676.178 121.244ZM686.277 128.861C685.71 128.861 685.223 128.788 684.815 128.642C684.408 128.5 684.068 128.311 683.796 128.075C683.528 127.843 683.314 127.595 683.155 127.33L684.089 126.673C684.195 126.813 684.33 126.972 684.492 127.151C684.654 127.333 684.877 127.49 685.158 127.623C685.443 127.759 685.816 127.827 686.277 127.827C686.893 127.827 687.402 127.678 687.803 127.379C688.204 127.081 688.405 126.614 688.405 125.977V124.426H688.305C688.219 124.565 688.096 124.738 687.937 124.943C687.782 125.145 687.556 125.326 687.261 125.485C686.97 125.641 686.575 125.719 686.078 125.719C685.462 125.719 684.908 125.573 684.417 125.281C683.93 124.99 683.544 124.565 683.259 124.009C682.977 123.452 682.837 122.776 682.837 121.98C682.837 121.198 682.974 120.517 683.249 119.937C683.524 119.354 683.907 118.903 684.398 118.585C684.888 118.263 685.455 118.102 686.098 118.102C686.595 118.102 686.989 118.185 687.281 118.351C687.576 118.513 687.801 118.699 687.957 118.908C688.116 119.113 688.239 119.282 688.325 119.415H688.444V118.202H689.578V126.057C689.578 126.713 689.429 127.247 689.131 127.658C688.836 128.072 688.438 128.375 687.937 128.568C687.44 128.763 686.887 128.861 686.277 128.861ZM686.237 124.665C686.708 124.665 687.105 124.557 687.43 124.342C687.755 124.126 688.002 123.816 688.171 123.412C688.34 123.008 688.425 122.524 688.425 121.96C688.425 121.41 688.342 120.925 688.176 120.504C688.01 120.083 687.765 119.753 687.44 119.514C687.115 119.276 686.714 119.156 686.237 119.156C685.74 119.156 685.326 119.282 684.994 119.534C684.666 119.786 684.419 120.124 684.253 120.548C684.091 120.973 684.01 121.443 684.01 121.96C684.01 122.491 684.093 122.96 684.258 123.367C684.427 123.772 684.676 124.09 685.004 124.322C685.336 124.551 685.747 124.665 686.237 124.665Z" fill="black"/>
<path d="M593.101 143.838C593.101 147.704 589.967 150.838 586.101 150.838C582.235 150.838 579.101 147.704 579.101 143.838C579.101 139.972 582.235 136.838 586.101 136.838C589.967 136.838 593.101 139.972 593.101 143.838Z" fill="#6956E5"/>
<path d="M605.432 148V147.105L608.793 143.426C609.187 142.995 609.512 142.621 609.767 142.303C610.023 141.981 610.211 141.679 610.334 141.398C610.46 141.113 610.523 140.814 610.523 140.503C610.523 140.145 610.437 139.835 610.264 139.573C610.095 139.311 609.863 139.109 609.568 138.967C609.273 138.824 608.942 138.753 608.574 138.753C608.183 138.753 607.842 138.834 607.55 138.996C607.262 139.156 607.038 139.379 606.879 139.668C606.723 139.956 606.645 140.294 606.645 140.682H605.472C605.472 140.085 605.609 139.562 605.885 139.111C606.16 138.66 606.534 138.309 607.008 138.057C607.485 137.805 608.021 137.679 608.614 137.679C609.21 137.679 609.739 137.805 610.2 138.057C610.661 138.309 611.022 138.648 611.284 139.076C611.545 139.504 611.676 139.979 611.676 140.503C611.676 140.877 611.608 141.244 611.473 141.602C611.34 141.956 611.108 142.352 610.777 142.79C610.448 143.224 609.993 143.754 609.409 144.381L607.122 146.827V146.906H611.855V148H605.432ZM617.349 148.139C616.693 148.139 616.108 148.027 615.594 147.801C615.084 147.576 614.678 147.263 614.376 146.862C614.078 146.457 613.915 145.988 613.889 145.455H615.142C615.168 145.783 615.281 146.066 615.48 146.305C615.679 146.54 615.939 146.722 616.26 146.852C616.582 146.981 616.938 147.045 617.329 147.045C617.767 147.045 618.154 146.969 618.492 146.817C618.831 146.664 619.096 146.452 619.288 146.18C619.48 145.909 619.576 145.594 619.576 145.236C619.576 144.861 619.483 144.531 619.298 144.246C619.112 143.958 618.84 143.733 618.483 143.57C618.125 143.408 617.687 143.327 617.17 143.327H616.355V142.233H617.17C617.574 142.233 617.929 142.16 618.234 142.014C618.542 141.868 618.782 141.663 618.955 141.398C619.13 141.133 619.218 140.821 619.218 140.463C619.218 140.118 619.142 139.818 618.99 139.563C618.837 139.308 618.622 139.109 618.343 138.967C618.068 138.824 617.743 138.753 617.369 138.753C617.018 138.753 616.686 138.817 616.375 138.947C616.066 139.073 615.814 139.257 615.619 139.499C615.423 139.737 615.317 140.026 615.301 140.364H614.108C614.127 139.83 614.288 139.363 614.59 138.962C614.891 138.557 615.286 138.242 615.773 138.017C616.264 137.792 616.802 137.679 617.389 137.679C618.019 137.679 618.559 137.807 619.01 138.062C619.46 138.314 619.807 138.647 620.049 139.061C620.291 139.475 620.411 139.923 620.411 140.403C620.411 140.977 620.261 141.466 619.959 141.87C619.661 142.274 619.255 142.554 618.741 142.71V142.79C619.384 142.896 619.886 143.169 620.247 143.61C620.609 144.048 620.789 144.589 620.789 145.236C620.789 145.789 620.639 146.286 620.337 146.727C620.039 147.165 619.631 147.509 619.114 147.761C618.597 148.013 618.009 148.139 617.349 148.139ZM622.584 145.912V144.898L627.059 137.818H627.794V139.389H627.297L623.916 144.739V144.818H629.942V145.912H622.584ZM627.377 148V145.604V145.131V137.818H628.55V148H627.377ZM635.922 148V137.818H642.027V138.912H637.155V142.352H641.569V143.446H637.155V148H635.922ZM646.521 148.159C645.832 148.159 645.227 147.995 644.706 147.667C644.189 147.339 643.785 146.88 643.493 146.29C643.205 145.7 643.061 145.01 643.061 144.222C643.061 143.426 643.205 142.732 643.493 142.138C643.785 141.545 644.189 141.085 644.706 140.756C645.227 140.428 645.832 140.264 646.521 140.264C647.21 140.264 647.814 140.428 648.331 140.756C648.851 141.085 649.255 141.545 649.544 142.138C649.835 142.732 649.981 143.426 649.981 144.222C649.981 145.01 649.835 145.7 649.544 146.29C649.255 146.88 648.851 147.339 648.331 147.667C647.814 147.995 647.21 148.159 646.521 148.159ZM646.521 147.105C647.045 147.105 647.476 146.971 647.814 146.702C648.152 146.434 648.402 146.081 648.564 145.643C648.727 145.206 648.808 144.732 648.808 144.222C648.808 143.711 648.727 143.236 648.564 142.795C648.402 142.354 648.152 141.998 647.814 141.726C647.476 141.454 647.045 141.318 646.521 141.318C645.997 141.318 645.567 141.454 645.228 141.726C644.89 141.998 644.64 142.354 644.478 142.795C644.315 143.236 644.234 143.711 644.234 144.222C644.234 144.732 644.315 145.206 644.478 145.643C644.64 146.081 644.89 146.434 645.228 146.702C645.567 146.971 645.997 147.105 646.521 147.105ZM656.585 144.878V140.364H657.758V148H656.585V146.707H656.505C656.326 147.095 656.048 147.425 655.67 147.697C655.292 147.965 654.815 148.099 654.238 148.099C653.761 148.099 653.337 147.995 652.965 147.786C652.594 147.574 652.303 147.256 652.09 146.832C651.878 146.404 651.772 145.866 651.772 145.216V140.364H652.946V145.136C652.946 145.693 653.101 146.137 653.413 146.469C653.728 146.8 654.129 146.966 654.616 146.966C654.908 146.966 655.204 146.891 655.506 146.742C655.811 146.593 656.066 146.364 656.272 146.056C656.48 145.748 656.585 145.355 656.585 144.878ZM661.08 143.406V148H659.907V140.364H661.041V141.557H661.14C661.319 141.169 661.591 140.857 661.955 140.622C662.32 140.384 662.791 140.264 663.367 140.264C663.884 140.264 664.337 140.37 664.725 140.582C665.112 140.791 665.414 141.109 665.629 141.537C665.845 141.961 665.953 142.498 665.953 143.148V148H664.779V143.227C664.779 142.627 664.623 142.16 664.312 141.825C664 141.487 663.573 141.318 663.029 141.318C662.655 141.318 662.32 141.399 662.025 141.562C661.733 141.724 661.503 141.961 661.334 142.273C661.165 142.584 661.08 142.962 661.08 143.406ZM670.98 148.159C670.344 148.159 669.782 147.998 669.295 147.677C668.807 147.352 668.426 146.895 668.151 146.305C667.876 145.711 667.739 145.01 667.739 144.202C667.739 143.4 667.876 142.704 668.151 142.114C668.426 141.524 668.809 141.068 669.3 140.746C669.79 140.425 670.357 140.264 671 140.264C671.497 140.264 671.89 140.347 672.178 140.513C672.47 140.675 672.692 140.861 672.844 141.07C673 141.275 673.121 141.444 673.207 141.577H673.307V137.818H674.48V148H673.347V146.827H673.207C673.121 146.966 672.998 147.142 672.839 147.354C672.68 147.562 672.453 147.75 672.158 147.915C671.863 148.078 671.471 148.159 670.98 148.159ZM671.139 147.105C671.61 147.105 672.007 146.982 672.332 146.737C672.657 146.489 672.904 146.146 673.073 145.708C673.242 145.267 673.327 144.759 673.327 144.182C673.327 143.612 673.244 143.113 673.078 142.685C672.912 142.254 672.667 141.92 672.342 141.681C672.017 141.439 671.616 141.318 671.139 141.318C670.642 141.318 670.228 141.446 669.896 141.701C669.568 141.953 669.321 142.296 669.155 142.73C668.993 143.161 668.912 143.645 668.912 144.182C668.912 144.725 668.995 145.219 669.16 145.663C669.329 146.104 669.578 146.455 669.906 146.717C670.238 146.976 670.649 147.105 671.139 147.105ZM679.994 148.159C679.258 148.159 678.623 147.997 678.089 147.672C677.559 147.344 677.15 146.886 676.861 146.3C676.576 145.71 676.434 145.024 676.434 144.241C676.434 143.459 676.576 142.77 676.861 142.173C677.15 141.573 677.551 141.106 678.065 140.771C678.582 140.433 679.185 140.264 679.874 140.264C680.272 140.264 680.665 140.33 681.052 140.463C681.44 140.596 681.793 140.811 682.111 141.109C682.43 141.404 682.683 141.795 682.872 142.283C683.061 142.77 683.155 143.37 683.155 144.082V144.58H677.269V143.565H681.962C681.962 143.134 681.876 142.75 681.704 142.412C681.535 142.074 681.293 141.807 680.978 141.612C680.666 141.416 680.298 141.318 679.874 141.318C679.407 141.318 679.003 141.434 678.661 141.666C678.323 141.895 678.063 142.193 677.881 142.561C677.698 142.929 677.607 143.323 677.607 143.744V144.42C677.607 144.997 677.707 145.486 677.905 145.887C678.108 146.285 678.388 146.588 678.746 146.797C679.104 147.002 679.52 147.105 679.994 147.105C680.302 147.105 680.58 147.062 680.829 146.976C681.081 146.886 681.298 146.754 681.48 146.578C681.662 146.399 681.803 146.177 681.903 145.912L683.036 146.23C682.917 146.615 682.716 146.953 682.435 147.244C682.153 147.533 681.805 147.758 681.391 147.92C680.976 148.08 680.511 148.159 679.994 148.159ZM687.824 148.159C687.187 148.159 686.626 147.998 686.138 147.677C685.651 147.352 685.27 146.895 684.995 146.305C684.72 145.711 684.582 145.01 684.582 144.202C684.582 143.4 684.72 142.704 684.995 142.114C685.27 141.524 685.653 141.068 686.143 140.746C686.634 140.425 687.201 140.264 687.844 140.264C688.341 140.264 688.734 140.347 689.022 140.513C689.314 140.675 689.536 140.861 689.688 141.07C689.844 141.275 689.965 141.444 690.051 141.577H690.15V137.818H691.324V148H690.19V146.827H690.051C689.965 146.966 689.842 147.142 689.683 147.354C689.524 147.562 689.297 147.75 689.002 147.915C688.707 148.078 688.314 148.159 687.824 148.159ZM687.983 147.105C688.454 147.105 688.851 146.982 689.176 146.737C689.501 146.489 689.748 146.146 689.917 145.708C690.086 145.267 690.17 144.759 690.17 144.182C690.17 143.612 690.088 143.113 689.922 142.685C689.756 142.254 689.511 141.92 689.186 141.681C688.861 141.439 688.46 141.318 687.983 141.318C687.486 141.318 687.071 141.446 686.74 141.701C686.412 141.953 686.165 142.296 685.999 142.73C685.837 143.161 685.756 143.645 685.756 144.182C685.756 144.725 685.838 145.219 686.004 145.663C686.173 146.104 686.422 146.455 686.75 146.717C687.081 146.976 687.492 147.105 687.983 147.105Z" fill="black"/>
<defs>
<filter id="filter0_d_15_256" x="0" y="0" width="1021" height="420" filterUnits="userSpaceOnUse" color-interpolation-filters="sRGB">
<feFlood flood-opacity="0" result="BackgroundImageFix"/>
<feColorMatrix in="SourceAlpha" type="matrix" values="0 0 0 0 0 0 0 0 0 0 0 0 0 0 0 0 0 0 127 0" result="hardAlpha"/>
<feOffset dy="4"/>
<feGaussianBlur stdDeviation="19.5"/>
<feComposite in2="hardAlpha" operator="out"/>
<feColorMatrix type="matrix" values="0 0 0 0 0.317647 0 0 0 0 0.270588 0 0 0 0 0.623529 0 0 0 0.09 0"/>
<feBlend mode="normal" in2="BackgroundImageFix" result="effect1_dropShadow_15_256"/>
<feBlend mode="normal" in="SourceGraphic" in2="effect1_dropShadow_15_256" result="shape"/>
</filter>
<filter id="filter1_f_15_256" x="136.233" y="202.687" width="853.921" height="94.0468" filterUnits="userSpaceOnUse" color-interpolation-filters="sRGB">
<feFlood flood-opacity="0" result="BackgroundImageFix"/>
<feBlend mode="normal" in="SourceGraphic" in2="BackgroundImageFix" result="shape"/>
<feGaussianBlur stdDeviation="7" result="effect1_foregroundBlur_15_256"/>
</filter>
<filter id="filter2_f_15_256" x="136.233" y="182.537" width="853.921" height="81.7802" filterUnits="userSpaceOnUse" color-interpolation-filters="sRGB">
<feFlood flood-opacity="0" result="BackgroundImageFix"/>
<feBlend mode="normal" in="SourceGraphic" in2="BackgroundImageFix" result="shape"/>
<feGaussianBlur stdDeviation="7" result="effect1_foregroundBlur_15_256"/>
</filter>
<filter id="filter3_d_15_256" x="623.46" y="163.455" width="25.8165" height="19.7641" filterUnits="userSpaceOnUse" color-interpolation-filters="sRGB">
<feFlood flood-opacity="0" result="BackgroundImageFix"/>
<feColorMatrix in="SourceAlpha" type="matrix" values="0 0 0 0 0 0 0 0 0 0 0 0 0 0 0 0 0 0 127 0" result="hardAlpha"/>
<feOffset dy="2"/>
<feGaussianBlur stdDeviation="2"/>
<feColorMatrix type="matrix" values="0 0 0 0 0.268354 0 0 0 0 0.268354 0 0 0 0 0.31049 0 0 0 0.15 0"/>
<feBlend mode="normal" in2="BackgroundImageFix" result="effect1_dropShadow_15_256"/>
<feBlend mode="normal" in="SourceGraphic" in2="effect1_dropShadow_15_256" result="shape"/>
</filter>
<filter id="filter4_d_15_256" x="623.46" y="163.455" width="25.8165" height="19.7641" filterUnits="userSpaceOnUse" color-interpolation-filters="sRGB">
<feFlood flood-opacity="0" result="BackgroundImageFix"/>
<feColorMatrix in="SourceAlpha" type="matrix" values="0 0 0 0 0 0 0 0 0 0 0 0 0 0 0 0 0 0 127 0" result="hardAlpha"/>
<feOffset dy="2"/>
<feGaussianBlur stdDeviation="2"/>
<feColorMatrix type="matrix" values="0 0 0 0 0.268354 0 0 0 0 0.268354 0 0 0 0 0.31049 0 0 0 0.15 0"/>
<feBlend mode="normal" in2="BackgroundImageFix" result="effect1_dropShadow_15_256"/>
<feBlend mode="normal" in="SourceGraphic" in2="effect1_dropShadow_15_256" result="shape"/>
</filter>
<filter id="filter5_d_15_256" x="526.739" y="78.7445" width="219.258" height="131.256" filterUnits="userSpaceOnUse" color-interpolation-filters="sRGB">
<feFlood flood-opacity="0" result="BackgroundImageFix"/>
<feColorMatrix in="SourceAlpha" type="matrix" values="0 0 0 0 0 0 0 0 0 0 0 0 0 0 0 0 0 0 127 0" result="hardAlpha"/>
<feOffset dy="10"/>
<feGaussianBlur stdDeviation="16"/>
<feComposite in2="hardAlpha" operator="out"/>
<feColorMatrix type="matrix" values="0 0 0 0 0.121569 0 0 0 0 0.184314 0 0 0 0 0.27451 0 0 0 0.12 0"/>
<feBlend mode="normal" in2="BackgroundImageFix" result="effect1_dropShadow_15_256"/>
<feBlend mode="normal" in="SourceGraphic" in2="effect1_dropShadow_15_256" result="shape"/>
</filter>
</defs>
</svg>
